/* XPM */
static char *_1957c7f0f134f57ce17e313f720b3f1o50iSO1SfqNGd3SP[] = {
/* columns rows colors chars-per-pixel */
"64 64 253 2 ",
"   c None",
".  c #7A3A1D",
"X  c #642D2C",
"o  c #6B342B",
"O  c #733C29",
"+  c #652837",
"@  c #7C2A30",
"#  c #2F791D",
"$  c #1C7927",
"%  c #1D7938",
"&  c #1F781E",
"*  c #7A571D",
"=  c #78471D",
"-  c #51791D",
";  c #73721D",
":  c #744628",
">  c #6A2547",
",  c #722256",
"<  c #771E70",
"1  c #5A3B79",
"2  c #6E2671",
"3  c #1D7958",
"4  c #1D7949",
"5  c #395C79",
"6  c #1D786C",
"7  c #296B78",
"8  c #4A4B79",
"9  c #AA3912",
"0  c #953A2A",
"q  c #882E2F",
"w  c #BF3939",
"e  c #BF3739",
"r  c #B0322C",
"t  c #86311A",
"y  c #C52B2C",
"u  c #C82E2A",
"i  c #CC332A",
"p  c #CD3327",
"a  c #D43B29",
"s  c #D33A28",
"d  c #C42537",
"f  c #C13B3B",
"g  c #CA393A",
"h  c #D23E3E",
"j  c #934F17",
"k  c #A94D12",
"l  c #8F7718",
"z  c #AC6F11",
"x  c #934927",
"c  c #A74F26",
"v  c #A66624",
"b  c #A57825",
"n  c #FA720E",
"m  c #DD4527",
"M  c #DA4128",
"N  c #D54F36",
"B  c #E34B26",
"V  c #E54E27",
"C  c #EB5424",
"Z  c #EA5627",
"A  c #F05C23",
"S  c #E35E3D",
"D  c #C87425",
"F  c #F26723",
"G  c #F47720",
"H  c #EB7527",
"J  c #DF5906",
"K  c #902251",
"L  c #991D6F",
"P  c #A71E64",
"I  c #CD1E57",
"U  c #C82248",
"Y  c #D33550",
"T  c #D11B66",
"R  c #D61977",
"E  c #D12865",
"W  c #CB4E4E",
"Q  c #F74A4A",
"!  c #EF5150",
"~  c #D17572",
"^  c #F5716F",
"/  c #DF685B",
"(  c #BF4241",
")  c #15AB16",
"_  c #32AB11",
"`  c #11AC2F",
"'  c #25901F",
"]  c #52AA12",
"[  c #6FAC11",
"{  c #609018",
"}  c #06FF06",
"|  c #18FF00",
" . c #00FF17",
".. c #1AE305",
"X. c #28FE00",
"o. c #38FF01",
"O. c #01FF27",
"+. c #01FF37",
"@. c #12FF28",
"#. c #1ADF23",
"$. c #47FF00",
"%. c #56FF00",
"&. c #67FE00",
"*. c #76FF00",
"=. c #5CE019",
"-. c #11AD50",
";. c #12AB6F",
":. c #188D62",
">. c #00FF49",
",. c #01FF57",
"<. c #04E943",
"1. c #00FF67",
"2. c #02FF78",
"3. c #0FF270",
"4. c #32FF65",
"5. c #5EFF70",
"6. c #AC9711",
"7. c #8DAB11",
"8. c #A5A911",
"9. c #AA9125",
"0. c #8B9417",
"q. c #F5881F",
"w. c #F7971E",
"e. c #FE9001",
"r. c #F8A81E",
"t. c #F8B71E",
"y. c #FBAD03",
"u. c #CB9026",
"i. c #F4AD2D",
"p. c #DCA21D",
"a. c #86FF01",
"s. c #99FF00",
"d. c #9AF50B",
"f. c #A7FF00",
"g. c #B7FE00",
"h. c #83D409",
"j. c #F9C61E",
"k. c #FED207",
"l. c #C7FF00",
"z. c #D9FB04",
"x. c #FEE901",
"c. c #E7FE00",
"v. c #F8F800",
"b. c #F7ED15",
"n. c #FAD228",
"m. c #F8EA2A",
"M. c #C1D409",
"N. c #F8B071",
"B. c #EF9B61",
"V. c #99FF61",
"C. c #F0E55D",
"Z. c #763B9B",
"A. c #387597",
"S. c #6F4CAA",
"D. c #4D6FAB",
"F. c #545796",
"G. c #636FC6",
"H. c #9E188C",
"J. c #A41692",
"K. c #A616A7",
"L. c #912DAE",
"P. c #9322A1",
"I. c #DB1688",
"U. c #DE1692",
"Y. c #E1129A",
"T. c #E515A6",
"R. c #EA0BB8",
"E. c #E60EAC",
"W. c #DE17A5",
"Q. c #E670AB",
"!. c #DE5A92",
"~. c #BE3DFD",
"^. c #F109CF",
"/. c #F804E9",
"(. c #F607F8",
"). c #E718FE",
"_. c #EF0DFD",
"`. c #D828FF",
"'. c #C935FF",
"]. c #F02EF9",
"[. c #DF1ECB",
"{. c #B647FF",
"}. c #A857FF",
"|. c #B356FF",
" X c #9568FF",
".X c #8678FF",
"XX c #9173FF",
"oX c #995DF1",
"OX c #F552F0",
"+X c #E560E8",
"@X c #11AB8E",
"#X c #2B90AA",
"$X c #14A8A5",
"%X c #1F9098",
"&X c #01FF89",
"*X c #00FF97",
"=X c #05E388",
"-X c #30FF93",
";X c #01FFA8",
":X c #01FFB8",
">X c #04E1A8",
",X c #30FFAF",
"<X c #73FFB1",
"1X c #7787FF",
"2X c #6796FE",
"3X c #7C95FF",
"4X c #46B8FF",
"5X c #58A9FF",
"6X c #6BA7FF",
"7X c #01FFC9",
"8X c #00FFD8",
"9X c #16FFD5",
"0X c #37C8FF",
"qX c #2AD7FF",
"wX c #02FFE7",
"eX c #16E7FE",
"rX c #05F9F7",
"tX c #15F9F6",
"yX c #33F7F4",
"uX c #2FEECF",
"iX c #6DF4F3",
"pX c #5BF5E3",
"aX c #3E9DD5",
"sX c #C58F8B",
"dX c #F48D8A",
"fX c #C5ACA6",
"gX c #C8ABA6",
"hX c #D4B5AF",
"jX c #F6B5AE",
"kX c #DE9CA0",
"lX c #9AFFA6",
"zX c #F7F6B3",
"xX c #EFDFA1",
"cX c #9FA3FF",
"vX c #F1B5D3",
"bX c #FA8CF4",
"nX c #F1B2FB",
"mX c #E791E2",
"MX c #91F7F4",
"NX c #AEFBF8",
"BX c #9CF4DE",
"VX c #FEDDD6",
"CX c #FCDDD8",
"ZX c #F4CBCA",
"AX c #FCF8D8",
"SX c #F8D4F6",
"DX c #CEFAF5",
"FX c #FCE8F9",
"GX c #E7FEFA",
"HX c #FEFEFF",
"JX c #FBF8F9",
"KX c #F8F5E9",
"LX c #CDE0F0",
/* pixels */
"                                                                                    Q ! jXCX                                    ",
"                                                                                Q Q Q ^ VXCXVX                                  ",
"                                                                              ^ Q Q Q jXVXVXVXVX                        B.VX    ",
"                                                                            jXQ Q Q ! jXVXVXVXVXVX                  Q Q !.hXhXhX",
"                                                                          VXdXQ Q Q W gXhXhXCXCXVXZX            ^ Q Y ( sXfXfXfX",
"                                                                        VXVX^ Q W w W sXfXfXfXhXVXdXQ Q Q ^ ZXZX^ Y e ( sXfXfXfX",
"                                                                        VXVXdXh e e e sXfXfXfXfXgX! ! Q Q dXVXZX/ e e ( B.fXfX  ",
"                                                                      VXVXVXsXg e e e sXhXfXfXfXsXg N Y W kXhXgXsXw ( ( (       ",
"                                                                      jXCXZXsXW w w         fXhX~ e e W !.fXfXfXfXW N e         ",
"                                                                    Q ^ ZXgXfXsXW           fXsXW e e W fXfXfXfXfXsX            ",
"                                                                    Q Q ~ gXfXgXsX              e e c sXfXfXfX                  ",
"                                                                m.q.Q ! e W sXgX                                                ",
"                                                          b.m.m.C.m.i.S g g W                                                   ",
"                                                      n.n.C.C.zXzXm.m.j.p.H u.                                                  ",
"                                                    t.n.xXKXHXxXn.n.n.b.m.b.p.9.                                                ",
"                                                  i.i.AXHXAXxXn.n.n.n.n.n.m.8.9.                                                ",
"                                                  r.xXJXzXi.t.t.j.j.j.j.j.n.j.9.9.                                              ",
"                                                w.w.xXVXi.i.r.i.t.t.t.t.j.j.t.9.9.                                              ",
"                                                w.w.N.N.i.w.r.r.r.r.r.t.t.t.t.u.9.                                              ",
"                                              q.q.q.w.q.w.w.w.w.w.p.r.r.r.t.t.u.b 9.                                            ",
"                                      F F G G G G n G q.q.q.q.q.w.w.w.w.w.r.r.u.b                                               ",
"                                A A A A F F B.N.N.G G G q.G q.q.q.q.q.w.w.w.w.b b                                               ",
"                            B V C C C A F dXFXJXAXB.F G F G G q.G q.q.q.q.q.q.D v b                                             ",
"                        a B B B B B B C A jXZXB.^ F A F F F F F G G G G q.q.q.D v v v v                                         ",
"                    s s s a a N / / V V B Z Z V C A Z A A F A F F F F G G G G H v c v v j                                       ",
"                u u u i p p / jXKXjXN m m m m V V V C C C C A A A F F F F G G G D v c v x :                                     ",
"            U d y y y y u u / dX/ W a a M M M m m m m B B B C C C C A A A F F F A c c c v : : :                                 ",
"          T I I U U U d d y r p u i i s p s a a m M m m B B B B C C C C C A A A A D c x x * : : :                               ",
"        I.I.R R T T I I U d d d d y u u i i p p p a a a m a B B m B B B C C C C A V c c c x O : :                               ",
"        E.Y.Y.U.I.Q.vXQ.E I I U U d d y y y u u u p s a s a a a M m m B m B B C C C c c x c x O : :                             ",
"      ^.^.^.E.E.mXJXHXQ.I.R R T T I I U U d y e W ~ ~ ~ / N i a s a a m m m m B B V M c 0 c x O O O O                           ",
"      /.^.^.^.mXJXFXmXT.Y.Y.I.I.R R T T I E Q.ZXKXHXHXHXFXZXkXW p p p s s a M a m m r 0 0 0 x O O O O                           ",
"    _._.(.(.OXJXFXOX^.R.R.E.E.Y.Y.U.U.R !.ZXJXHXHXHXHXHXHXHXHXCXB.U u p i s s s s s p 0 0 0 x q O O O o                         ",
"    '.'.).).nXFXOX/././.^.^.^.^.R.E.E.Q.SXHXHXHXHXHXHXHXHXFXZXZXFXhXW u u u u i u p r 0 0 0 0 q o o o O                         ",
"  XX X}.{.|.nX+X)._.(.(.(././.^.^.^.+XFXHXHXHXHXHXHXHXHXJXQ.T I ~ vXvXW d y y y y y r q t q 0 t o o o o o                       ",
"  2X1X.XXX X}.|.{.'.`.`.)._.(.(./.].SXHXHXHXHXHXHXHXHXHXCXI.R R R T kXvXW U d d d d r q q 0 q q o X o o o                       ",
"  4X4X5X3XcX1X.XXX X}.{.~.'.`.).(.bXHXHXHXHXHXHXHXHXHXHXvXE.Y.I.I.R R vXvXE I U U d q q q q t @ X X X o X                       ",
"eXeXqX0XNXLX5X5X2X1X.XXX X}.{.{.+XSXHXHXHXHXJXSXFXHXHXHXCX[.R.E.E.Y.U.T.FXQ.R R T I U @ K q @ @ X X X X o X                     ",
"wXrXrXtXDXDXqX0X4X4X5X2X2X1X.X XcXJXHXHXJXnXOX].OXbXJXHXHXnX[.^.R.R.T.Q.HXvXI.I.R R P K K q K @ X + X X X X                     ",
"7X8X8XtXDXNXrXeXeXqX0X0X4X5X2X2XcXJXHXHXLX|.~.'.`.`.nXHXHXHXFXbXOXOX+XSXHXSXT.Y.Y.I.P L K K K K + + + + X X                     ",
";X:X:X7XNXpXwXwXrXrXrXeXqXqX0X4XcXGXHXJXcX.XXX}.}.{.mXJXJXJXHXHXKXJXJXHXHX+X^.R.R.T.H.L L L K , > > > + + +                     ",
"*X*X;X;XpX,X7X7X8X8XwXrXrXrXeXeXiXHXHXJX6X6X2X1X.X XcXFXHXHXHXHXJXHXHXFXbX/./.^.^.R.J.L J.L L K > > > > > >                     ",
"2.2.&X&X*X*X;X;X:X7X7X7X8XwXwXrXyXHXHXHXMX0X4X5X2X2XcXJXHXHXHXHXHXHXFX+X)._.(.(./.^.J.J.J.L L < , , > , , >                     ",
">.,.1.1.2.2.&X*X*X;X;X:X:X7X8X8XyXGXHXHXLXyXeXqX0X4XMXHXHXHXHXHXHXGXnX|.~.'.`.).).[.K.K.K.K.J.< < 2 2 , , ,                     ",
"+.+.+.+.,.2.1.2.2.&X&X*X*X;X:X:X,XGXHXHXHXNXyXtXyXiXJXHXHXHXHXHXHXHXLX X X}.|.{.~.L.K.K.K.K.K.< < < < , < ,                     ",
" . .O.4.lX5.>.,.,.1.2.2.2.&X*X*X;XBXHXJXHXHXGXNXNXGXHXHXHXHXHXHXHXHXJXLX3X1X.XXXoXS.S.Z.L.L.Z.< 2 < < < <                       ",
"} } } lXHXlXO.+.+.>.>.,.1.1.2.2.&X-XNXJXHXHXHXHXJXJXHXHXHXHXHXHXNXNXHXHXLX6X2X3XG.F.S.S.S.S.Z.2 2 2 2 Z.2                       ",
"o.X.| lXHXKX@. . .O.+.+.>.>.,.,.1.2.-XlXDXNXBX<XBXDXHXHXDXNXGXGXyXtXMXHXHXDX4XaXD.D.D.D.G.F.F.1 F.1 2 2 2                       ",
"  %.$.V.HXHX5.} } }  . .O.O.+.>.>.>.,.1.3.2.2.&X&X,XGXHXBX:XBXHXDXyXwXMXFXNXqX#X#X#X#XA.D.A.8 5 8 1 1 1                         ",
"  *.*.V.JXGXzXX.X.| | } } }  . .O.+.+.>.>.,.,.1.2.2.BXHXDX,X,XGXHXGXuX9XpXuX@X$X$X$X#X#X#X7 5 5 8 5 5 8                         ",
"  f.s.d.zXGXGX=.%.$.o.o.X.| } } }  . .O.O.+.+.>.,.,.lXHXJX<X2.BXHXGXBX;X>X@X@X@X$X$X$X$XA.6 A.7 7 5 5                           ",
"    l.g.C.JXHXxX*.*.&.%.$.$.o.X.| | } }  . .O.O.+.+.4.JXJXDX3.-X<X-X*X=X;.;.;.@X@X@X@X:.6 6 6 7 7 7 7                           ",
"    c.c.z.zXHXJXV.a.s.a.*.&.%.%.$.o.X.X.| } } }  . .@.lXDXlX4.>.,.1.3.-.-.;.;.;.;.;.:.6 6 6 6 6 6 6                             ",
"      v.v.m.AXHXAXC.g.f.s.s.a.*.*.&.%.$.o.o.X.| | } }  .@. .O.+.+.<.-.-.-.-.-.-.;.:.4 3 3 3 3 3 6                               ",
"      k.x.x.C.HXHXAXm.l.l.l.g.f.s.a.*.*.&.%.%.$.o.X.| | } } }  .#.` ` ` ` -.-.-.:.4 4 4 4 3 3 3 3                               ",
"        k.y.k.C.KXJXzXb.c.c.z.l.l.g.f.f.s.a.*.&.&.%.$.$.X.X...) ) ) ) ) ) ` ` ' $ % % 4 % 4 4 3                                 ",
"          y.y.y.C.HXHXC.b.x.v.v.c.z.l.l.g.f.f.s.a.a.*.&.=._ _ _ ) ) ) ) ) ) ' & $ $ % % % %                                     ",
"            e.e.y.N.KXKXn.k.x.x.x.v.v.v.c.z.l.l.g.d.h.[ [ ] ] ] ] _ _ _ _ & & & $ & $ $ $                                       ",
"              n n n i.i.y.y.y.k.k.k.x.x.x.v.c.M.8.7.7.[ [ [ [ [ ] ] { ' - # # & # & & $                                         ",
"                n n n n n e.e.e.e.y.p.p.6.6.6.6.8.8.8.8.7.7.7.0.[ { - - - # - # # #                                             ",
"                    J J J J z J z z z z z z 6.6.6.6.6.8.6.0.{ { { ; - { - - - #                                                 ",
"                        9 9 k k k k k z z z z z z 0.l l l ; l ; ; ; ; ; - ;                                                     ",
"                            9 9 9 9 9 j j j j * * * j * * ; l ; ; ; ;                                                           ",
"                                  t . . . . . = = = = * : * * *                                                                 "
};
