/* XPM */
static char *f3c11abbdaba49feab5d5de5b92eee74DARf4HpeUccD1uB4[] = {
/* columns rows colors chars-per-pixel */
"64 64 48 1 ",
"  c #8C9B37",
". c #8B9A37",
"X c #8B9A36",
"o c #8B9936",
"O c #899836",
"+ c #899835",
"@ c #8A9936",
"# c #8D9C37",
"$ c #8A9836",
"% c #8C9A37",
"& c #899735",
"* c #808E32",
"= c #7D8A30",
"- c #818F32",
"; c #889735",
": c #859334",
"> c #879534",
", c #869534",
"< c #839133",
"1 c #7F8D31",
"2 c #808D31",
"3 c #849233",
"4 c #7E8B31",
"5 c #8C9C37",
"6 c #8D9D37",
"7 c #7C8930",
"8 c #889635",
"9 c #879535",
"0 c #869434",
"q c #7F8C31",
"w c #808D32",
"e c #829033",
"r c #7C8830",
"t c #7E8C31",
"y c #818E32",
"u c #7B8830",
"i c #879635",
"p c #839033",
"a c #8E9D37",
"s c #849133",
"d c #828F32",
"f c #7B872F",
"g c #829032",
"h c #849334",
"j c #859434",
"k c #7A872F",
"l c #7B882F",
"z c white",
/* pixels */
"     . XX        . XX . .  X          X         . XX   X  X     ",
"  XX  X  XXX     XX  X   Xo X       .    X.     XX  X X XX X    ",
" X  XX OX   X XXX  +O X  XoX..       X@ X  X X X  +X X.XX@ X    ",
"X X@#  $X @X X   @@XX X% X  XXX    . X&  XX X X @XOX  X ## .    ",
" X*=-&    @X XXo XX  X  X X@# XX    .  X $X XXX @X  XX ;:>X X   ",
" ,<:11<X X    X@#X XX  X X2=-&  X    .X   XX OX   XO # 314@ X   ",
" X56,74@ X  X@839 XX   X 03:2q<X X.     X 5 X&9@ Xw7e0>q=9X X   ",
"X XX$0$ X @-q472:   X   XX560rt@   X X X ;eyq4105X:<77=444q> X. ",
"X 0O # X  &quqy4O ;@ X    X O0@ X0X X X  i7rq4p X&a0w$@o-7u3#X  ",
"X  XX +@5e74s0&di OX X   X X # XX@X  &XX-41y>31$ ;XoX #:y>0@ X  ",
" XX   XX 34e#  # X  X     . XXX X5 X o @q73#      X  X @X#5 X   ",
" &40 X    X XXXXX XX  XX .    X5,-@ X X o&XXXXXX X XXXX  XXX X  ",
" 0=y XX XX X  X      X  X   .X  df35XX X   XX X     X  XX XX  X ",
"X @X X   XX XX X    X oO X   XX X8X X % XXX  X     X @X XX  XX X",
" X  X     X @8 X    X XX X   XX    X     X ;$ X    X @X X XXXX X",
"  XXX       XX .     X  X   %  .XXX      X XX X     X  XX ;8 XX ",
"  X  X     .  .       XX      X  X  X     X  X     % XX  X  XX  ",
" X $@ X      XX XX              X OX X     XX  XX         XX    ",
" X XX X     X  X  X        X.   X @X .     X  XX          .     ",
" XX  X     X XX XX X      X  X  XX  X     X XX   X              ",
"X  XX      X XX $> X     X XX  XXXXX .    X @X 8& X       X.    ",
" X@# XX XX. X  X X .     X oX X   # X  XX  X 55XX X     X @X %  ",
"+qw39  X 5 XX <4i X     X X  X 9q<9@ XX  XX X<eX X        X     ",
"X0dr4XX +>X  O<q< XX  .  X XXX ;p*f<#X $@ X 9q7> X..  XX        ",
" @::&X&#0gXX  #X  X    XX X   X#ie<;@O5d3 XXX OX XXXX   X       ",
"X ##   X #o+ XX @@ X X X$ XXX  X  # XX X O@ XX XX 5   @@ XX     ",
" XXXX%X XX  X X +@ XXXX  XX XXX XXXX  X  XX XX i @e<X XX   X    ",
"       XX XX % X  XX   XXX O  XX.   ..XXX     X +274X X  X$ X   ",
"      X  X    . XXX  O@ XX X9X  X    X  XXX . X $<9@ X X X@ X   ",
"     X XX X      X X0=4o X <7=<X X  X XX 5 X   X #5 X   X  X    ",
"     X @X X XXXXXX 84w3 X $:+314i X X O <d@ X . XXXX .   XX   X ",
"      X  XXXXX   X  $   XX 5#Xq=9 X  X  8=s#X   . XX %    . %  .",
" XXXXX XXX #  @8$  @  XX X@ XXO&     X  Xw> X   XX  X  XXXX  X@ ",
"XX55 XX;  @3dw4q<X ;X X     X   X . X @ >4@ X  X  @@ XX  X X XX ",
"  3:O  XX ;4u41w@$X  X  XXXX X@  X  X &o XX  XX @X@@ X X 3: X  .",
" 34=40o  :qq*3h=>#XXX  X # X &gq; X. X   @@ XXX oo  XX#eq4qX XX ",
"X8X@gu-  -uw  XX XX   X +<; #3qy$ X   XXX XX @$   XXX i7=4=8 X  ",
"    s1>  X;@ X  X  X XX -74q*4re>@ X.   X #  @8@ XX X idq7*X X  ",
" X9X  # X   X%XX Xo X. XX8=2e<g7ud X.XXX @:g*4qp   X X #,qO X   ",
" X8XXX$X XXX   X Xi X. X5O3 #.dt1q@ X  X oqu=qw@ $X X XX   X %  ",
"X # X $X .      X  X    X #X 8sXX$X  $@5jqqw<940#;@ X .XXXX .   ",
" ;j XX  X       XX  X XX XXXX    # X oX -u2     X  X    .X      ",
" dk:5XX.XXXXXX X 5Oo X  X  X XX @d& X   X8$ XX XX  X XX %    X  ",
"X;3& X X      X >>4<#XXX X XXXX 0u1 XXXXX  XX X #+i X  X  .X  . ",
"  # X XXX+iX$@ @4==qX O@ XX  XX Xi& X X  5   X i<y4X X@ XX  XX .",
" XXX  X#$473@@#<74=4@   XX ;8 XX   X %XX8:8X; Xw74=>#o@ X XX.X X",
"  X  X 8dt=*   @82r, XXX X XX X XXXX X  yrq@o 8444=i X XX @0  X ",
" X @X @=u=7e XX #+,   XX  X  X   X  X 8*q44$ XXX:73#XXX %    X  ",
" X +X X>3:<@ X XX 5XXX  X  X  X X @o  yu=72X XX  &X XXXX X XXX  ",
"  X  X 5# 5 XXXX  XX #@; XX @X XX @o  @i80$ X XXX  XXX5 X X  XX ",
"   XX XXXXXX @X ;O  @:<=9 X wq$ XX  XX   5 XXX   XX 5 :o X O&  X",
"  X%    XX  XX #O@  3l==: XoO405XXXX  XXXXX @o @>  X<e=y X5:r3 X",
"XXXXXXX%XX XX 9,   @q18@  X >4$ 5 5 X  XX  X  #X@  ,r=1<  @ ed X",
" 5     X  XX 9=ui X @X  X X50e @--i@ XX   XX >d$ X <28   X +=0#X",
" 320O@$ d3#X @O0O XX  X  X X   @p-7qX  X@XX @*rg X    XXXX @3@ X",
" :d4r8  &@$@   # X 5 X oo XXXXX $p-:X&#0*X  X OO XXXXX  X X # X ",
"  3d<@ X  XX XXXi X09X XX   X. XX  5 X XXo&     X 55  X$ XXXXX .",
"XX  5 X XX  X .XX@pr=o   .XX X  XXXX  X  XX XX ;$ :pO XX X  X   ",
" XXXXX X. XX   X ;1<9 XXX XO X   XX  X XX  X  X X<=li X X @X XXX",
"  XX% .  %      X  5 X   X  X        X  X%X   X X<:; XXXX @X X  ",
"     X OX .    % XXXX     XX  .X    X XX .     X 5# X.   X  X oX",
"     . XX        .X          .  X   X @@ X      XXXXX     XXX XX",
"      .                       Xo X   X  X        %           X  ",
"       X                      Xo X    XX                      XX"
};
