/* XPM */
static char *_524238b650d4396b44d62d37b703729d6SU6pe8LORUQqo5[] = {
/* columns rows colors chars-per-pixel */
"64 64 223 2 ",
"   c None",
".  c #040C15",
"X  c #080E16",
"o  c #060E18",
"O  c #080F19",
"+  c #031115",
"@  c #06121A",
"#  c #0A131B",
"$  c #06191C",
"%  c #0A1B1D",
"&  c #081117",
"*  c #13171D",
"=  c #060A0F",
"-  c #10211E",
";  c #0C1C22",
":  c #081921",
">  c #161B22",
",  c #0C2225",
"<  c #0E262A",
"1  c #0F292A",
"2  c #132425",
"3  c #182526",
"4  c #1A2925",
"5  c #132629",
"6  c #142B2C",
"7  c #1A2D2C",
"8  c #172827",
"9  c #1C312E",
"0  c #152E31",
"q  c #163233",
"w  c #1B3434",
"e  c #1F3937",
"r  c #1A3739",
"t  c #1D3B3B",
"y  c #222C2B",
"u  c #25292B",
"i  c #25322C",
"p  c #2A332E",
"a  c #233633",
"s  c #253A35",
"d  c #2B3A32",
"f  c #223D3A",
"g  c #2C3E39",
"h  c #2B3333",
"j  c #343B32",
"k  c #3B3F33",
"l  c #303838",
"z  c #2E3230",
"x  c #1F403F",
"c  c #36522F",
"v  c #25423E",
"b  c #2B433B",
"n  c #2D493E",
"m  c #2A4137",
"M  c #36443B",
"N  c #3B453B",
"B  c #3C4A3E",
"V  c #394438",
"C  c #395636",
"Z  c #324D2C",
"A  c #444A3C",
"S  c #4B4D3B",
"D  c #424335",
"F  c #46553E",
"G  c #55533E",
"H  c #43603B",
"J  c #1F4141",
"K  c #244442",
"L  c #274A45",
"P  c #2B4C46",
"I  c #264B49",
"U  c #2A4E49",
"Y  c #284742",
"T  c #374C44",
"R  c #2D534C",
"E  c #2F594E",
"W  c #32554D",
"Q  c #325B4E",
"!  c #3A5A4D",
"~  c #395548",
"^  c #2E5751",
"/  c #345C53",
"(  c #3B5F52",
")  c #335F59",
"_  c #36614F",
"`  c #366156",
"'  c #3A6354",
"]  c #366259",
"[  c #3A655A",
"{  c #3D6A5E",
"}  c #3D6954",
"|  c #3D6C61",
" . c #444D41",
".. c #455444",
"X. c #4A5343",
"o. c #495948",
"O. c #535B46",
"+. c #5B5A44",
"@. c #5B5D49",
"#. c #535A48",
"$. c #655F44",
"%. c #42694C",
"&. c #466745",
"*. c #59624D",
"=. c #53774C",
"-. c #436454",
";. c #4A6553",
":. c #426D54",
">. c #4D6A57",
",. c #436B5C",
"<. c #4B6D5B",
"1. c #426759",
"2. c #5D6A53",
"3. c #586C56",
"4. c #4C725D",
"5. c #4D7B5B",
"6. c #477258",
"7. c #54725C",
"8. c #5B745C",
"9. c #507E5D",
"0. c #597C57",
"q. c #4C7043",
"w. c #63644B",
"e. c #6C6B4D",
"r. c #676449",
"t. c #736D4D",
"y. c #646B53",
"u. c #6B6C52",
"i. c #65735B",
"p. c #6C785B",
"a. c #747353",
"s. c #797553",
"d. c #7B7A56",
"f. c #7D7C59",
"g. c #757859",
"h. c #736F51",
"j. c #416E61",
"k. c #447263",
"l. c #4A7563",
"z. c #4C7966",
"x. c #4D7C69",
"c. c #457668",
"v. c #527662",
"b. c #537A64",
"n. c #5C7C63",
"m. c #507D69",
"M. c #5C7E68",
"N. c #627D64",
"B. c #697D63",
"V. c #817E5C",
"C. c #53815B",
"Z. c #598259",
"A. c #7E815A",
"S. c #5C8067",
"D. c #5D856C",
"F. c #55826B",
"G. c #658266",
"H. c #6A8366",
"J. c #64856A",
"K. c #6C866A",
"L. c #6D8B6D",
"P. c #638A6C",
"I. c #738565",
"U. c #7B8464",
"Y. c #738C6C",
"T. c #7C8C6C",
"R. c #798868",
"E. c #76906E",
"W. c #678D70",
"Q. c #738F71",
"!. c #788F71",
"~. c #6C9275",
"^. c #799674",
"/. c #69916F",
"(. c #82845D",
"). c #8A835E",
"_. c #858761",
"`. c #868A62",
"'. c #898C65",
"]. c #828D6B",
"[. c #8C8F68",
"{. c #958D64",
"}. c #8C9269",
"|. c #9C956A",
" X c #9B9A6C",
".X c #95956A",
"XX c #849B75",
"oX c #8C9B74",
"OX c #899974",
"+X c #939971",
"@X c #979B72",
"#X c #838F70",
"$X c #A29D6E",
"%X c #A39F71",
"&X c #8AA079",
"*X c #9CA37C",
"=X c #9BA57A",
"-X c #A5A473",
";X c #A8A776",
":X c #A7AA75",
">X c #A9AB76",
",X c #A4AB7C",
"<X c #ABAD7B",
"1X c #A1A77F",
"2X c #ADB27C",
"3X c #B0B37F",
"4X c #A0A06D",
"5X c #9DAA80",
"6X c #9CB081",
"7X c #A5AC81",
"8X c #AEB385",
"9X c #A7B485",
"0X c #B2B582",
"qX c #B5B985",
"wX c #B4BB8A",
"eX c #BABD8B",
"rX c #B3B788",
"tX c #B8C18D",
"yX c #BEC491",
"uX c #C1C592",
"iX c #C2C995",
"pX c #C9CE98",
"aX c #C0C38F",
/* pixels */
"                                              K x                             x J                                               ",
"                                            R P K R                         R L R E                                             ",
"                                          U [ %.C.[ I                     L ' P.b._ R                                           ",
"                                        q L ~.&.c C.K q                 q K C.C C C.J w                                         ",
"                                    k.b.q t } C.%._ e 8 } |         { ,.q t _ %.C.' w 4 n.k.                                    ",
"                                  j.-.T.6 q J x L e 1 4 R.1.k.    { -.R.9 q K Y x r 1 2 T.1.|                                   ",
"                                { z.8.aXo., 6 < % , $ A yX8.m.{ k.x.G.uX.., 6 , % , % X.iXN.F.|                                 ",
"                              f J ] ' ].iXi., + + $ 9 G.XX,./ v Y { ,.XXJ.t , + + % 2.iXoX,.] J K                               ",
"                          ^ W :.6._ ) z.^.yX#X8 % b K.K.J.Q 7 X # t ` P.L.K.v ; - T.iX&XF.) E x.z./ /                           ",
"                        t L D.C H C.J I { ^.wX1X+XQ.^.[ U 3 * . $ @ 9 / ,.!.Q.+X*XtX^.{ U J C.q.C 6.L t                         ",
"                      l.0 t m.Z.C } v 6 | k.:.OXoXb.l.v % X > # . . o 5 ^ z.m.oXoX4.k.| 6 v } C =.5.t 9 v.                      ",
"                    [ G.6 r I ( ' L q 4 0.,.{ ,.l./ a ; . X * X . o o @ ; K [ l.l.| [ 3.6 r U ' _ I 6 2 G.[                     ",
"                c.l.8.8Xa 1 r 1 6 6 % i rXN.x.z./ q # . . . . O . o . o . . s [ c.x.7.0Xh < q 0 5 6 % i 8X8.z.c.                ",
"              x I j.;.8X=Xg , $ + $ % i.=Xv.j.P 6 # . . . # o . o O . . . . @ 6 / k.v.9XB.1 < : + $ i =X8Xl.k.R t               ",
"            E ~ R ^ ] b.tXwX~ + . 1 ;.K.8.` v % # . . # # : o . o @ o . . . . . 2 R [ L.L.<.1 + + T wXtXS.[ E W ( ^             ",
"          U 6._ C.6.I ] k.5XiXy.#.n.^.v.( e X . @ o . . @ o . . o @ o . . . . . . % v ,.v.T.v.O.y.yX6Xl.[ L 6.P.>.} U           ",
"      ,.q K ~.&.Z 5.v q { F.I.rXrXL.P.W 7 # . . : $ : . . . . . . . o o . o . . : @ o f ] J.W.rXrXY.x.{ q K 5.Z H C.K q {       ",
"    { n.9 t ` 5.:.Q r 4 ,.| ] >.z.[ U 8 + . . = o o O O . . . . = . o O o o o . . o . o 7 / { v.v.{ { 1.0 t E :.5.Q q 4 n.}     ",
"  k.>.oX6 0 t r f q , 8 +X4.l.l.1.v ; . . . . . . o o ; # . . . . . o # o . . . . . . . o 2 R l.z.k.;.oX7 0 x t q q , - oX<.k.  ",
"{ z.7.aXi., 1 , $ , % #.yXS.x.` e % . . . . . . o o o # # . = . @ : % o o . . o . . = . o . ; K | z.N.yX*., 1 : % , % i.uXN.x.[ ",
"Q [ ( K.pX].6 + . $ f K.^.,.W 7 o . = . . . @ @ O o . . o : o o o : # O o o . . . . o . . ; o # f ` | ^.K.Y : $ + 2 ].pXT.[ Q n ",
"! L W l.L.tX7Xa 3 ~ !.N.b.P 5 O : . = . @ . @ + . . . . O ; ; : o o O O . o o . . o o . @ # O o . 7 ) M.N.!.~ y i 1XyXQ.l.U a m ",
"e h s R [ L.=XwX7XY.N...g ; # : : . . . . o o o . . X X # # O . o o O O . . o @ o o o o # . . . @ $ 6 T ..B.!.7XwX9X/.[ v 7 y 4 ",
"e h.e.g U [ ' K.!.j.! l > @ O : o . @ o o o o @ O O O # O O . . . . o o . o o o . . @ o . . o o : ; ; y T j.l.!.Y.:./ f y G G 6 ",
"M y.|.d.M K ` l.l.W h z 3 o # # ; @ 2 o o O # > . . . . = . . o = . o : . . . . . o O . . = X . . o o > h b ` c.l.^ a p +.s.O.p ",
"*. .@X%X).S v ` R 2 O > 5 O . . o o @ o O : # # O # . . . . . O . = . o o o o o . o O o . . O . . # . . O % t / W 9 j r.s.h.B A ",
"[.s o.*X;X{.o.J r 2 . . @ ; # . . . . . . o o . # @ . = . > > O . @ : . o o . o . . = % . . . . . . . . . . 6 t f N r.V.p.B i e.",
"2Xg.a P R.I.Q ` ` R 0 O . # ; @ . o . o . . . . o . . . > u u # . o : . @ : . o . . o 5 O . o o . # : $ . 0 U ' / W y.i.d 4 O.A.",
"wX0XV.b K Y 6.=.C :.I 6 # . . . o . = . . . . o o o o . ; u u O o : : + @ : : . . . . . . O # o . o . O 6 L :.C 0.F.L s i +.A.(.",
"3X<X@Xv.0 K 4.C =.5.f q ~ ; . . o @ . . = . . . o # o . O u u * . o o @ @ : o . . o . . . . o @ : . > P 0 x C.q.C D.K 6 -.U.'.'.",
"3X}.v.4.w r R v.b.R 0 8 G./ 6 . . . . . . . . . . o : @ O O O X . . . . @ , o o : . . O . . . . O 5 / G.6 r R ,.:.R q 4 ;.<.R.(.",
"XXb.v.7Xa 6 r q 0 0 ; 4 *Xn.j.f . . . . . . . . . . o @ O . . . o . . . . @ o . @ . O # O . o # e ,.b.*X9 6 r q w 6 , 4 =X>.5.G.",
",.l.7.wXi., 1 : + % 4 R.tX7.l.^ 6 O . . # o o # o . . o @ . o @ , o o 2 : . . . . = . @ O O # 6 ^ z.b.eX].7 < : $ ; % 2.wX8.6./ ",
"( ` [ L.L.! < + + 9 =XyXH.[ ^ v I f : . # @ o # @ . o @ # > # o # o o % O o . . . . o : O ; f U K ^ [ K.iX5Xs + + % ! J.L.` P P ",
"P v W m.n.Y.>.M N wXwXn.,.R } C.%./ K ; . . . . o . . o ; u % # # # o . o . . . . o : < ; K / %.C.[ R | n.9XeX~ d ;.^.8.4.n 9 m ",
"r k g U [ P.K.rXtXOXF.| t K C.C C C.L 9 w . . . o o . . ; u . $ # . . o o . o = = X O 6 q K 9.c F ~.L t | D.oXeXqXL./.` t y u 7 ",
"a a.V.N K { -.n.8.' | { 6 t _ b./.' r 7 M.L O . . = . . o . . # O o o o o . . o . @ K b.6 t } C.:.} e 6 :.{ { N.i.[ Q 9 i G +.y ",
"M *.$X_.X.f ) l.l.k.,.R.7 q v U Y t 6 - T.<.W ; . . . . . . . o O @ . . . . . : ; R <.T.6 q x x P t 2 4 A.' | l.l.P 9 j r.s.O.p ",
"y.k +X;X{.@.b ' j.m.n.aX.., 0 , ; , $ F uXN.m.) ; = = . . . o # o o o . . . . : ^ F.G.yXo., 6 < % , $ B yXn.z.{ U 9 D e.d.u.N S ",
".Xg T OX;X{.#.! / [ -.XXK.r : $ + % *.uXOX( ] J t 6 o . . . . @ o . . . . O 6 r J [ ,.oXuX3., $ + $ e H.XX-./ n m k t.A.y.m a h.",
"0X].g g B.$Xs.f ! W ) P.Q.K.P ; - U.iXoXx.] ^ } :.E t # . . . o o . o = @ r R :.:.^ ] x.&XiXT., % f Y.G.D.W s b 7 +.f.*.9 i *.(.",
"eX0X'.A f 8.p.f f w g ) ,.K.L.oX*XtX^.} R J 5.q.Z 6.L 0 ; . . . o o o @ 6 I 6.c =.P.K I { ^.yX*X}.L.^.1.P 9 3 7 4 S F 6 p r.(.(.",
"3X-X<X{.#.f U w a w.@.g ^ z.7.oXOX;.| | q J 6.&.Z.5.t 7 -.3 . o ; O 6 -.w t 5.=.H z.K 0 { k.7.&XoX7.4.K 7 D S 7 2 2 2 k e.'.[.'.",
"3X$X3X<X|.y.g X.g u.{.u.g I ) <.,.{ { 8.7 r I ,.1.P 0 2 G.[ w # : q ( J.6 r U ` } P 0 4 3.` | l.,./ f 7 G t.O.p k 3 S a.(.'.(.(.",
"0X-X<X3X<X<X[.{.@...-X%Xd.N Y [ c.x.n.rXd 1 r 0 1 6 % 9 8Xn.z.v v z.n.8Xh < q 0 1 6 , i 8X8.l.c.( e y +.s.s.F A e.e.(.A.(.d.d.A.",
"  ;X2XqX0XyX3X;X_.a 3.7X%X). .' [ j.>.7Xp., , $ @ $ i *XrX>.,.Q ( j.l.8X*Xs , : @ $ - i.,X>.} R n j $.d.g...a r.A.`.`.`.'.(.A.  ",
"    2XqXeX<X0X2X>X2.w -.+X$Xw.b ! ( [ ~.Q.>.0 + + B wXtXn./ U n ( / [ N.wXwXT + + , <.J./.` P n 9 S d.g.M 7 A d.`.f.(.'.'.`.    ",
"      ;X2X;X2XtXeX<Xu.a T ].U.b Y t U j.v.Y.n.&.2.yX9X4.[ f 4 a Y r I j.l.6XiX2.F 7.XX7.-.f 6 i 7 +.y.d 3 F d.`.(.s.f._.d.      ",
"          2X;XqX0X<X;Xd.g P ;.w r A k Y ) J.H.wXeXI.v./ i p j 7 a  .N K [ m.Y.eXrXK.P.Q 9 p j 4 2 i 9 y G (.`.'.(.d.A.          ",
"            >X2X3X4X2X;X).T e g l a._. .v ) [ 7.<./ U 7 j r.G i h s.V. .f / [ v.7.' P 9 j r.G i y % p r.A.'.'.'.(.A.            ",
"              2X0X X<X2X:X|.y.d.X.*.%X{.@.f W k.,.Y 7 D e.s.O.V  .*.%X{.@.f R j.,.L 7 D e.s.o.V $.F e.A.(.(.f.(.[.              ",
"                qX;X<X0X8XeX>X-Xg.b ].<X|.e.g ( P i S h.d.w.m w.a.g ].<X|.w.Y ( P i S t.d.w.m +.d.(.`.(.(.f.f.(.                ",
"                    2XeXeXqX0X>X XB v I.:X|.+.P m D a.(.*.a m d.+XN f I.;X|.#.~ m V t.(.*.e p g.`.(.(.[.[.(.                    ",
"                      8XqX;X2XqXqX@X .e 3. Xf.f 9 +.f...8 d e.(.8X+X .r 3..Xf.s 9 +.d.X.4 d u.A.(.s.f.`.(.                      ",
"                        >X>X>XeXqX0X|.X.e ;.i.v 7 N N 4 V h.(.[.0XqX|.X.e ;.8.s 6 V M 8 V h.(.'.(.s.A.(.                        ",
"                          2X:X2X3X-X2X Xw.g v 9 2 ; 3 S h.'.[..X<X-X2X Xw.s f w 2 ; 4 A s.'.[.`.`.f.(.                          ",
"                              2X2X$X<X2X4Xf.M *.S i +.d.(.(.(.'.<X$X2X2X4Xg.M @.S i +.d.A.`.(.(.[.                              ",
"                                qX-X<X0X2X8X@X.Xd.a.A.(.(.d.d.`.0X%X<X0X<X0X X.Xs.s.(.(.(.d.d.(.                                ",
"                                  >X2XwXqXeX0X-X`.(.(.'.[.(.A.    <X2XqXqXtX0X-X`.`.`.'.'.A.A.                                  ",
"                                    2XqXeX>X0X<X'.f.(.[.`.'.        2X0XeX<X0X>X'.d.f.'.'.'.                                    ",
"                                        <X;X2XqX'.s.f.(.                <X;X2XqX`.s.A.(.                                        ",
"                                          2X-X2X'.d.(.                    2X;X2X`.d.(.                                          ",
"                                            2X:X[.A.                        <X:X[.A.                                            ",
"                                              2X.X                            ,X+X                                              "
};
