/* XPM */
static char *d61726c599c343488d3c9851608bea6fesdQNakG2SNMcARL[] = {
/* columns rows colors chars-per-pixel */
"64 64 230 2 ",
"   c None",
".  c #001113",
"X  c #021619",
"o  c #06191C",
"O  c #0A1C1D",
"+  c #000F11",
"@  c #0B1E22",
"#  c #071F22",
"$  c #0C2225",
"%  c #0E262A",
"&  c #0F292A",
"*  c #142524",
"=  c #192627",
"-  c #1A2925",
";  c #122729",
":  c #142B2C",
">  c #1A2D2B",
",  c #182827",
"<  c #1C312E",
"1  c #142E31",
"2  c #163233",
"3  c #1B3434",
"4  c #1E3937",
"5  c #1A3738",
"6  c #1D3B3B",
"7  c #212D2B",
"8  c #2A2F2B",
"9  c #25322D",
"0  c #2A332D",
"q  c #233633",
"w  c #253A35",
"e  c #2B3A33",
"r  c #233D3A",
"t  c #2C3D39",
"y  c #293634",
"u  c #333B32",
"i  c #3A3F33",
"p  c #303E39",
"a  c #35372F",
"s  c #10211E",
"d  c #1F403F",
"f  c #36522F",
"g  c #24413D",
"h  c #2B433B",
"j  c #2D493E",
"k  c #2B4137",
"l  c #3C4236",
"z  c #35443B",
"x  c #3B463B",
"c  c #3C4B3E",
"v  c #344438",
"b  c #395636",
"n  c #324D2C",
"m  c #424435",
"M  c #43493C",
"N  c #4B4D3B",
"B  c #474637",
"V  c #46553E",
"C  c #54523D",
"Z  c #58543E",
"A  c #43603B",
"S  c #1F4141",
"D  c #234442",
"F  c #294742",
"G  c #274A45",
"H  c #2B4C45",
"J  c #264B49",
"K  c #2A4E49",
"L  c #334D44",
"P  c #3D4C41",
"I  c #334741",
"U  c #2D534C",
"Y  c #2F594E",
"T  c #33544C",
"R  c #335B4E",
"E  c #3A5B4D",
"W  c #395548",
"Q  c #2E5651",
"!  c #345C53",
"~  c #3A5F52",
"^  c #335F59",
"/  c #36604F",
"(  c #366156",
")  c #3A6354",
"_  c #366259",
"`  c #3A655A",
"'  c #3D6A5E",
"]  c #3D6954",
"[  c #3D6C61",
"{  c #444D41",
"}  c #455344",
"|  c #4A5243",
" . c #4C5946",
".. c #495A4A",
"X. c #535B46",
"o. c #5C5A43",
"O. c #545C4A",
"+. c #5B5D49",
"@. c #535644",
"#. c #645F44",
"$. c #42694C",
"%. c #466745",
"&. c #5D614B",
"*. c #56624D",
"=. c #53774C",
"-. c #436454",
";. c #4A6553",
":. c #426C54",
">. c #426B5C",
",. c #4B6D5B",
"<. c #4B6A57",
"1. c #5D6A53",
"2. c #576B55",
"3. c #4D715D",
"4. c #4D7B5B",
"5. c #477258",
"6. c #54725C",
"7. c #5B745C",
"8. c #507E5D",
"9. c #597C57",
"0. c #4C7043",
"q. c #63654C",
"w. c #656A4D",
"e. c #6C6B4D",
"r. c #696448",
"t. c #726D4D",
"y. c #646B52",
"u. c #6C6D52",
"i. c #626651",
"p. c #716C51",
"a. c #65735B",
"s. c #6C795C",
"d. c #747353",
"f. c #797553",
"g. c #7B7A56",
"h. c #7D7D5A",
"j. c #757959",
"k. c #76714F",
"l. c #416E62",
"z. c #447263",
"x. c #4A7563",
"c. c #4C7966",
"v. c #4D7C69",
"b. c #457668",
"n. c #527662",
"m. c #537A65",
"M. c #5C7C63",
"N. c #517D69",
"B. c #5F7E68",
"V. c #627D64",
"C. c #6A7D62",
"Z. c #737E62",
"A. c #817E5B",
"S. c #807F60",
"D. c #53815B",
"F. c #598259",
"G. c #7E815A",
"H. c #5C8067",
"J. c #5D856C",
"K. c #54816A",
"L. c #658166",
"P. c #6A8366",
"I. c #64856A",
"U. c #6C866A",
"Y. c #6D8B6D",
"T. c #638A6C",
"R. c #738364",
"E. c #7B8464",
"W. c #738C6C",
"Q. c #7D8C6B",
"!. c #7A8967",
"~. c #76906E",
"^. c #678D70",
"/. c #738F71",
"(. c #6C9275",
"). c #769271",
"_. c #7B9875",
"`. c #69916F",
"'. c #82845D",
"]. c #8B845E",
"[. c #83885F",
"{. c #858761",
"}. c #868A62",
"|. c #898C65",
" X c #828D6B",
".X c #8C8F68",
"XX c #8B8662",
"oX c #948D64",
"OX c #998F66",
"+X c #8C926A",
"@X c #8C9167",
"#X c #9C956A",
"$X c #9C9A6C",
"%X c #949569",
"&X c #849B75",
"*X c #8C9B74",
"=X c #899974",
"-X c #939971",
";X c #989C72",
":X c #838F70",
">X c #A29D6E",
",X c #A29E71",
"<X c #8AA079",
"1X c #9CA37C",
"2X c #9CA478",
"3X c #A5A473",
"4X c #A8A776",
"5X c #A7AA75",
"6X c #A9AB76",
"7X c #A4AB7C",
"8X c #ABAD7A",
"9X c #A3A77B",
"0X c #ADB27C",
"qX c #B0B37F",
"wX c #A1A06D",
"eX c #9CAC80",
"rX c #A5AC81",
"tX c #AEB385",
"yX c #A7B485",
"uX c #B2B582",
"iX c #B5BA86",
"pX c #B4BB8A",
"aX c #BABE8B",
"sX c #B3B788",
"dX c #B8C08D",
"fX c #BEC491",
"gX c #C1C592",
"hX c #C2C995",
"jX c #C9CE98",
"kX c #C0C38F",
/* pixels */
"                                              d 6                             d S                                               ",
"                                            Y H G U                         U G T Q                                             ",
"                                          K ) ] D.] J                     G ) T.8.R U                                           ",
"                                        5 F (.%.f D.D 2                 5 D D.b b D.D 2                                         ",
"                                    z.m.1 5 ] F.$.R 4 , :.[         ' >.2 6 / $.D.) 3 > J.[                                     ",
"                                  l.-.Q.: 5 S d F 6 & * E.>.z.    ' -.Q.> 2 r G d 4 & * Q.;.[                                   ",
"                                [ c.9.kX..$ 1 $ $ $ o M fX7.N.' [ N.L.fX} $ : $ @ $ o | hXV.N.[                                 ",
"                              r S _ ~  XhXa.$ X . o < L.&X>.~ H R ' >.&XU.6 # X . O 1.gX*X>._ S D                               ",
"                          Q R :.5./ ^ c._.fX:X* o j U.U.J.R 3 j E ! ` J.Y.U.g @ s Q.hX*Xv._ Y c.n.! Q                           ",
"                        6 G J.b A D.S J ' _.dX1X-XW.).>.U < , , j 3 G _ l./.W.-X1XdX_.[ K D 4.=.b 5.J 6                         ",
"                      x.1 6 N.9.b ] g : [ z.;.=X*XN.3.F > i Z 9 3 N x D ! c.m.*X*X3.[ [ 1 g :.b 9.4.6 > n.                      ",
"                    ` L.: 5 J ~ ) G 1 - 9.' [ >.x.! r > B t.w.0 w d.XX| r Q ' z.x.[ ) 6.: 5 K ) / G : , L.]                     ",
"                b.x.7.uXw & 5 & ; ; $ 0 iXH.v.b.~ 4 9 C k.d. .x { O.3XOX+.r U ' b.v.7.tXy % 5 & % ; O 9 tX7.v.b.                ",
"              d K z.;.rX1Xe $ # X o O a.1X6.>.T j y o.f.G. .3 q.j.t Q.8X>Xp.z ~ _ b.c.rXs.& $ o X o 9 1XyX3.z.U 6               ",
"            Y E U Q _ m.dXpXP X . * ;.U.7.( G h w l f.h.c > l h.$XP r R.3X#X+.T E ( ` Y.Y.,.; X . c pXdXH.' Y W ~ Q             ",
"          U :./ D.:.J ` z.eXhX1.X.m._.6.~ g , > : N w.k , B j.|.tX;X{ 4 2.%XA.r W G T >.n.).n.O.1.fXeXx.` J :.T.3.) K           ",
"      >.2 D (.%.n 4.F 2 ' N.R.iXsXY.T.T 4 9 m 9 , = > > C A.|.@XqXuX$XX.4 ;.7.r 4 y w K ` J.Y.sXpXW.v.' 2 D 4.n V D.g 2 '       ",
"    ' M.< 6 ( 4.:.Y 3 > >.[ _ <.m.` H 3 0 #.e.u 7 $ 9 o.g.}.|.@X4X3XqX$Xq.t g 3 w p.p.t G _ ' m.m.' [ ;.1 6 R :.D.R 2 , H.'     ",
"  z.<.*X> 1 6 5 r 3 % = -X3.b.x.] G > i r.f.w.u o.N e.h.'.'.g.}.8X>X8XtX>Xh.P &.x i.>XA.x D ! b.v.z.;.=X> 1 d 6 2 2 $ s *X<.z.  ",
"' c.6.kXa.$ & $ o @ o O.fXM.v._ F e m t.A.y.j M g.[.}.}.}.A.g.[.iX3X6XuX0XuX$X$Xi.P 2X3X].| g ! ' v.M.fX*.$ ; @ o $ O a.gXM.v.` ",
"~ _ ) P.jX X: X . o r U.).>.T j k u e.A.w.w 9 q.[.[.'.|..X}.      6X0XpXaXaXuX6X.Xw ..1X4XoX| E R ` l.).U.H @ X + * Q.jXQ.] T F ",
"W F ! x.Y.pX9Xw = W Q.V.m.U 3 < < l d. .> 9 q.G.[.f.g.XX'.          0XiXaX8XuX0X0Xj.w H Q.,Xu.t ) T ^ B.C.W.T = 9 eXfX/.x.U w h ",
"5 y r U ` Y.rXsXrXW.V.} j < 0 7 & > v , u e.}.}.}.f.h.'.                8X4X6XaXaXsXE.u g s.E.g g 3 g T ..U./.rXpXyXY.` j > 7 , ",
"w p.e.k J ` ) P.~.l.W e > l r.M = s * l e.{.@X|.[.h.G.                    8X3XqXuX6X6XXXM r T 2 3 o.| w L l.x.Q.W.>.~ r > C C = ",
"z i.>Xg.z D ( z.x.U w = N t.k.v N i @.d.G.{.h.'.}.                          8X0X0X>X0X6XOXO.w P p u.oX+.r U ` x.x.T 3 0 o.k.X.0 ",
"&.P ;X,X].N g ( R k 7 o.k.g.*.u e.g.'.[.'.'.f.'.                              tXuX,X6XuX5X9XG.XXO.O.3X>Xp.t J ` T 3 i r.f.k.c M ",
"|.w ..1X4XoX} g S F C f.h...3 c G.}.[.|..X}.G.                                    5X8XiXuXdXqX5XS.y C.8X>Xg.I r 6 z e.A.u.c y e.",
"0Xs.w L !.R.~ R ) U O.j.c , l d.[.A.f.}.{.}.                                        0XaXaXuXuX6X3X..6 1.2XZ.R / ~ T 1.y.k > X.G.",
"aXuXh.F D F 4.=.b :.K g > B g.'.}.g.g.'.g.                                            6XuX4X0XpXaX5X+.r T T ] b 9.K.G r < #.h.[.",
"uX4X;X6.1 D 5.W =.8.d > ;.s.+X|.|.g.G.                                                  6X8X4XpXuXqX-X;.1 S 8.0.b J.F : $.E.|.|.",
"qX+Xc.6.3 5 U n.n.U 1 , L.x.Z.}.|.'.                                                        5X0XtX.Xm.I.> 5 Y :.:.U 2 * ;.>.R.[.",
"&Xm.n.7Xq : 5 1 1 1 @ - 1XM.c.a.}.                                                            0X=XN.n.1X< & 5 2 2 > @ - 3X2.c.L.",
"' x.6.sXa.$ % @ o O * E.aX6.z.! F                                                             T ! c.n.aX:X> % # X O O 1.pX7.5.! ",
"E _ ` /.Y.E $ . + < 1XhXP._ Y j J Q                                                         U H D ! [ L.fXeXw X . O E P.Y._ T j ",
"L g T N.B.W.<.z x sXpXm.z.U ) D.$.~ U                                                     K R $.D.' U l.H.yXpX{ e -._.n.3.F > t ",
"6 u t J ' I.Y.sXaX*XH.[ 6 D 8.b b 8.D 3                                                 5 D 8.f V (.D 5 [ J.*XaXiXW./.! 6 > 0 ; ",
"w d.g.x F ' ] M.7.( ' ' > 6 ( 8.`.] 3 , M.z.                                        z.M.> 6 ) D.:.] 6 , ] [ ' H.M.-.R 3 0 Z o.> ",
"x *.>XXX| r ! z.x.b.>.E.> 2 d U F 6 ; * Q.,.l.                                    l.l.Q.; 2 d D H 6 & - E.-.[ c.l.H > u r.k.X.a ",
"u.I -X4XOXo.g ) [ N.M.kX} $ 1 $ O $ o } gXV.c.[                                 ' v.L.gX..$ 1 % o $ O M fXa.x.' L > m e.g.e.v N ",
"%Xt I =X4XOXX.E ( ` -.&XU.3 @ X . o 1.fX=X~ ` D 6                             g S ` >.=XhX2.$ X X o < P.&X) ( j k i t.'.w.k w u.",
"uX}.v r C.>Xf.r ~ U ^ ^./.U.G $ s E.gX&XN.^ Y ] :.Y Q                     Q T ] :.Y _ v.<XhXQ.$ O r W.V.J.T k h < o.h.*.> 7 q.G.",
"sXsX|.M r 7.Z.r r 7 r ~ >.U.Y.-X1XpX_.' K D 4.0.n 5.D 6                 6 G 5.f =.T.D J ' _.dX1X+XY._.` H > = > > N V > 0 e.'.}.",
"uX3X8XoX@.r G 3 w &.+.w Q c.6.*X*X-.l.' > S :.%.F.4.6 : x.            c.2 d 4.=.A c.D 2 ' b.3.*X*X6.x.j > m N , * $ = i e.}.|.|.",
"qX>XqX8X#Xe.r | p y.#Xu.t J _ >.3.[ ' 7.> 3 U l.>.G > * P.l.        >.L.1 5 J ~ ] J > , 2.) [ x.>.! r > C t.*.0 i = N p.'.}.}.'.",
"iX,X8XqX8X8X.X.X+.} 3X,Xg.x F ' b.v.M.tXt & 5 & ; : @ 7 tXV.v.z.l.N.M.tXw ; 2 1 & : O 0 uX6.x.b.~ q 9 o.k.k.V M e.e.G.G.'.h.g.G.",
"  6X0XiXiXaXuX6XXXw 2.rX,XA.{ ) ` >.<.yXa.& $ o X o 9 1XuX<.' W _ z.x.tX1Xw $ # X o $ a.yX<.:.U j e #.f.j...q r.'.}.}.}.|.G.h.  ",
"    0XiXaX8XuX0X6Xi.3 -.;X>Xq.g ) ~ ` Y.).<.2 X . P pXdXB.! H j E ! ' M.pXpXP X . $ ,.P.Y.( H j q N g.j.z > M h.[.h.'..X|.}.    ",
"      4XqX5X8XaXaXrXu.w L {.{.g F 4 U >.n.W.M...1.hXeX3.` r , w F 4 G [ c.1XhX1.| 6.&X3.-.r , 3 > o.w.w , N g.[.[.f.h.'.h.      ",
"          0X3XiXuX8X3Xf.t H -.4 3 { i F ^ I.L.pXaXR.n.! 3 0 a > 3 M z D ` N.W.pXsXU.T.R 3 9 a , * 7 > 7 Z '.}.|.[.f.G.          ",
"            8X0XqXwX0X5X].P 4 t t d.S.| D ^ ` 6.,.! K < a r.o.> y f.].{ r ! ` n.3.~ K < u r.o.9 7 @ 0 r.h.|.|.|.}.G.            ",
"              0XqX,X8X0X6X%Xi.g.| *.3XoX+.y Q z.>.F > m e.f. .l { *.3XoX+.r Q z.>.F - m e.k.V m o.V t.G.'.G.h.'.|.              ",
"                iX3X8XiXtXaX8X3Xj.t  X8X#Xe.p ~ H 9 C t.g.q.v q.d.t  X4X#Xw.p ~ U 9 N k.g.w.k *.g.'.|.'.[.h.g.'.                ",
"                    0XaXaXiXuX6X$XP g R.4X#Xo.U t l d.'.*.q e h.-Xx r R.3X#XO.T k l k.'.*.w 0 d.}.[.'.+X.X{.                    ",
"                      uXiX4X0XiXiX%X{ 4 2.%Xh.k < o.g. ., e e.[.uX-XP q 2.%XA.w > o.g.} , e u.G.[.f.h.}.'.                      ",
"                        6X4X6XaXiXuX%X@.w ;.a.6 : l v , i d.[.@XuXuX-X@.4 ;.7.w , l v , i d.'.|.].f.G.'.                        ",
"                          0X6X8XqX3XuX$Xq.r D 3 , @ , N k.|..X@X4X,XtX#Xq.w g 3 ; @ = M d.|.@X|.{.g.G.                          ",
"                              0X0X>X8X0XwXg.v +.N 9 o.d.'.[.'.|.8X,X8X0XwXg.I +.N 9 o.f.'.[.'.'.|.                              ",
"                                iX3X8XtX0XuX;X%Xg.d.'.'.[.g.g.}.iX3X6XuX0XuX$X%Xg.d.'.'.'.g.g.'.                                ",
"                                  6X0XpXiXaXuX3X|.[.}.}..X'.G.    6X0XiXiXdXuX3X[.|.}.}.|.'.G.                                  ",
"                                    0XiXaX6XuX0X|.g.'.|.XX}.        0XiXaX8XtX6X|.g.A..X}.|.                                    ",
"                                        8X6X0XiX|.k.'.'.                4X6X8XpX}.f.h.'.                                        ",
"                                          0X3X0X|.g.'.                    qX4X0X}.g.'.                                          ",
"                                            0X5X@XG.                        8X5X@XG.                                            ",
"                                              6X-X                            6X-X                                              "
};
