/* XPM */
static char *fd443c7d09f04523b791a781d3c8965ejCSMSPp9j8KGibiN[] = {
/* columns rows colors chars-per-pixel */
"64 64 151 2 ",
"   c None",
".  c #261D15",
"X  c #2B1D17",
"o  c #2E1F18",
"O  c #262116",
"+  c #282317",
"@  c #26231C",
"#  c #2A251A",
"$  c #2D291E",
"%  c #322719",
"&  c #39261F",
"*  c #332A1B",
"=  c #3C2D1B",
"-  c #35311E",
";  c #3A351B",
":  c #242424",
">  c #282722",
",  c #2D2A23",
"<  c #232528",
"1  c #26282B",
"2  c #2A2C2C",
"3  c #312D22",
"4  c #3D2B22",
"5  c #322F2A",
"6  c #373222",
"7  c #34322C",
"8  c #3C3628",
"9  c #3A382F",
"0  c #2B2D31",
"q  c #2E3134",
"w  c #2F3238",
"e  c #323334",
"r  c #383736",
"t  c #3B3A33",
"y  c #33353A",
"u  c #37393D",
"i  c #393B3E",
"p  c #422F1B",
"a  c #45311C",
"s  c #48331D",
"d  c #432E25",
"f  c #4B362B",
"g  c #433C2C",
"h  c #433F34",
"j  c #403F3A",
"k  c #523B31",
"l  c #45411C",
"z  c #4D4534",
"x  c #43423D",
"c  c #534B3A",
"v  c #524536",
"b  c #5B523F",
"n  c #706D20",
"m  c #3C3D41",
"M  c #3F4243",
"N  c #434543",
"B  c #4C4A44",
"V  c #464648",
"C  c #484748",
"Z  c #454A4B",
"A  c #4A4A4A",
"S  c #4D514D",
"D  c #52524C",
"F  c #4E4E51",
"G  c #4F5252",
"H  c #525455",
"J  c #545A5B",
"K  c #5A5F5D",
"L  c #545757",
"P  c #6B4E41",
"I  c #645A46",
"U  c #685D49",
"Y  c #705246",
"T  c #755A4D",
"R  c #5B625E",
"E  c #696150",
"W  c #706755",
"Q  c #736955",
"!  c #786C57",
"~  c #7D705A",
"^  c #595E62",
"/  c #5D6364",
"(  c #5E636A",
")  c #636464",
"_  c #62666E",
"`  c #656A6C",
"'  c #696C6C",
"]  c #716F68",
"[  c #666C72",
"{  c #6C7373",
"}  c #707478",
"|  c #757A7D",
" . c #82765E",
".. c #807560",
"X. c #877961",
"o. c #8A7D63",
"O. c #888624",
"+. c #A19F27",
"@. c #B2B12A",
"#. c #C9C92D",
"$. c #D1D12E",
"%. c #8E836E",
"&. c #95866C",
"*. c #918772",
"=. c #958975",
"-. c #9C8C72",
";. c #9E927D",
":. c #A09075",
">. c #A49479",
",. c #AB9A7E",
"<. c #717680",
"1. c #757D81",
"2. c #797F88",
"3. c #778586",
"4. c #7A8285",
"5. c #7A8089",
"6. c #8A8A86",
"7. c #908F8B",
"8. c #848991",
"9. c #889596",
"0. c #AC9D83",
"q. c #B09F81",
"w. c #AFA28B",
"e. c #B2A183",
"r. c #B7A68A",
"t. c #BDAB8C",
"y. c #BCAD91",
"u. c #BFB199",
"i. c #C2B08F",
"p. c #C0AF93",
"a. c #C4B293",
"s. c #CBB896",
"d. c #C8B698",
"f. c #CCBA9B",
"g. c #D1BF9D",
"h. c #CDBDA1",
"j. c #D5C4A5",
"k. c #D6C5A8",
"l. c #D8C7A8",
"z. c #DCCAAB",
"x. c #E0CEB0",
"c. c #E4D3B5",
"v. c #E8D7BB",
"b. c #EBDABF",
"n. c #A4BDC4",
"m. c #A8C1CA",
"M. c #BFC9CD",
"N. c #C1D2D9",
"B. c #F3E2C6",
"V. c #DAE2E7",
"C. c #F2F6FA",
/* pixels */
"                                                                                                                                ",
"                                                                                                                                ",
"                                                                                                                                ",
"                                                                                                                                ",
"                                                                                                                                ",
"                                                                                                                                ",
"                                                                                                                                ",
"                                                                                                                                ",
"                      + + # $ + #                                                                                               ",
"                        + 3 i 2 # # # +                                                                                         ",
"                        # # x m y , > @ +                                                                                       ",
"                        # # N G N m 0 < @ + #                                                                                   ",
"                          3 3 H A V u 0 < + + +                                                                                 ",
"                            7 H A A i q > @ : + #                                                                               ",
"                          . A _ A A i w q : < : #                                                                               ",
"                          X ` | A V M i y 1 < : : #                                                                             ",
"                          3 ` ) F V u 0 < < < : @ @ #                                                                           ",
"                          6 t r A m u w 0 < < : # @ +                                                                           ",
"                        + $ j H M u y y 0 : : : : : @                                                                           ",
"                        t | _ m 0 1 < > @ @ # @ # @ # #                                                                         ",
"                      , / ( w : : @ + @ , > + + , , # +                                                                         ",
"                      9 Z > @ # + + 7 R F # @ + 5 7 + +                                                                         ",
"                    + @ @ $ # # $ + $ ' B O l O.6 5 +                                                                           ",
"                    + + $ e 7 $ l ; $ L { 7 n @.- 5 +                                                                           ",
"                    + # $ R L l $.#.; N { S - - t q +                                                                           ",
"                      # + D / $ +.@.- N 7 M Z M M 7 #                                                                           ",
"                          9 { G - ; N x + @ , 7 i ,                                                                             ",
"                          + H 1.H R x 8 c z %.z $ #                                                                             ",
"                            3 ' 1.S z u.=.$ Q e.z +                                                                             ",
"                            + t M 6 y.u.8 c c c ~ $                                                                             ",
"                            + + + E B.w.Q a.t. .;.c +                                                                           ",
"                        + # # # # ;.B.c.t.s.g.i.,.~ - O                                                                         ",
"                        # e 1 : , 0.c.f.s.i.f.s.t.-.z + #                                                                       ",
"                        7 F e < +  .z.y.d.a.y.j.j.,.I + +                                                                       ",
"                      + A ^ y 1 @ ~ x.,.a.f.e.k.k.r.X.3 + +                                                                     ",
"                      3 } ^ y 1 @ =.v.>.y.k.>.k.f.d.>.g @ @                                                                     ",
"                      x 8.^ w 1 @ =.b.>.r.z.,.s.s.g.t.z + @ +   O O . O @                                                       ",
"                      D 2.H y 1 @ *.c.>.e.g.t.i.a.i.,.z O : + # ] 7.6.6.B .                                                     ",
"                    + ) 2.F u 2 @ *.h.-.-.e.I o.e.~ &.g + : + t M.C.C.V.D                                                       ",
"                    + ) <.V y 1 @ W h.I ! ! # g b # z * @ @ @ R n.N.V.9.$                                                       ",
"                    + S [ V u 0 @ x w.6 8 g , , @ @ + @ > @ + H n.m.n.S O                                                       ",
"                    + x ^ N y 0 @ * I , , # q e > : @ @ # * p 3 { 3.R $                                                         ",
"                    O 7 M u 0 1 @ # # 7 u e e 0 1 : # + p p % + # # O                                                           ",
"                      $ 0 < < : @ , 9 u m m y 1 > # % p = + +                                                                   ",
"                      # + @ + # + e m m i u e : # = a % # # #                                                                   ",
"                      # 3 $ 2 e , 7 N m m e # % a ; $ @ @ @ # @                                                                 ",
"                      # 7 7 ` [ N # # 7 5 % p s * + : < : @ e 2 #                                                               ",
"                      + # $ ' 5.J # # # % p p $ @ : < < < $ m 2 #                                                               ",
"                      + % $ x 4.G # # $ p * # : < < < : : # V 5 +                                                               ",
"                        7 N * h 3 x M # + $ 1 < < < : @ + $ t $                                                                 ",
"                        $ r > # D 4.A # 9 0 < < < < : @ # + # +                                                                 ",
"                        + # % % t x , , 2 : < < < : : @ #                                                                       ",
"                        # = a % . @ @ @ # @ : : @ @ + +                                                                         ",
"                    + % a p % $ # # + + + + # 3 4 % # +                                                                         ",
"                  + * a = + v T f + + # # + * T P 4 X @ +                                                                       ",
"                  # % + + + k Y k & + +     $ f f 4 o . +                                                                       ",
"                    +     # % d d 4 o X #   + X o o X . +                                                                       ",
"                          + + X o o X . #   + + + + + + +                                                                       ",
"                            + + + + + +                                                                                         ",
"                                                                                                                                ",
"                                                                                                                                ",
"                                                                                                                                ",
"                                                                                                                                ",
"                                                                                                                                "
};
