/* XPM */
static char *d76264f02c9a4dfbfd3debc3787280efCJjeB1yzgj85CFyy[] = {
/* columns rows colors chars-per-pixel */
"67 67 177 2 ",
"   c None",
".  c #241F13",
"X  c #262216",
"o  c #282317",
"O  c #2B2519",
"+  c #2E281C",
"@  c #34251A",
"#  c #3B251B",
"$  c #32291E",
"%  c #3A2A1E",
"&  c #342D21",
"*  c #3A2E22",
"=  c #363025",
"-  c #3B3125",
";  c #3C342A",
":  c #3E392D",
">  c #35342A",
",  c #3C3C33",
"<  c #432B1F",
"1  c #462517",
"2  c #512618",
"3  c #6B2617",
"4  c #69291B",
"5  c #7E2717",
"6  c #452E21",
"7  c #482E21",
"8  c #4B3123",
"9  c #43362B",
"0  c #413B2E",
"q  c #4A3B2C",
"w  c #423427",
"e  c #513426",
"r  c #57392A",
"t  c #58392A",
"y  c #463731",
"u  c #453B32",
"i  c #493C34",
"p  c #503F37",
"a  c #4E4129",
"s  c #524822",
"d  c #4A4336",
"f  c #42433B",
"g  c #4D443C",
"h  c #4E483B",
"j  c #454033",
"k  c #544134",
"l  c #594437",
"z  c #584F37",
"x  c #52433B",
"c  c #5A453A",
"v  c #53493D",
"b  c #5E483D",
"n  c #654334",
"m  c #694637",
"M  c #67493B",
"N  c #675D36",
"B  c #746A37",
"V  c #474942",
"C  c #4E4B42",
"Z  c #534640",
"A  c #564B42",
"S  c #5A4B45",
"D  c #5D4E4A",
"F  c #4D524C",
"G  c #5A5446",
"H  c #5D524B",
"J  c #545148",
"K  c #5D5B53",
"L  c #535954",
"P  c #674E41",
"I  c #6B5246",
"U  c #61534E",
"Y  c #625A4B",
"T  c #6E5749",
"R  c #735344",
"E  c #795445",
"W  c #735749",
"Q  c #765B4D",
"!  c #7B5C4E",
"~  c #635552",
"^  c #655B53",
"/  c #6A5B55",
"(  c #6D5E59",
")  c #795E50",
"_  c #5B615D",
"`  c #6A6354",
"'  c #6F6158",
"]  c #7C6253",
"[  c #71615C",
"{  c #75695C",
"}  c #7A6B5D",
"|  c #5C6561",
" . c #626B68",
".. c #676B66",
"X. c #766561",
"o. c #7C6B65",
"O. c #716F69",
"+. c #7E706A",
"@. c #697574",
"#. c #767B78",
"$. c #842817",
"%. c #9C2A19",
"&. c #A82916",
"*. c #B22A17",
"=. c #CA2B17",
"-. c #D72C17",
";. c #FC2F17",
":. c #8D7E31",
">. c #805B4C",
",. c #817747",
"<. c #816556",
"1. c #986E5E",
"2. c #976D5D",
"3. c #83736C",
"4. c #877869",
"5. c #9C7E6C",
"6. c #9A7564",
"7. c #8B7B74",
"8. c #907E77",
"9. c #948741",
"0. c #93837C",
"q. c #96897F",
"w. c #A58573",
"e. c #B1927E",
"r. c #7A8A8B",
"t. c #8D8C88",
"y. c #9A8981",
"u. c #819295",
"i. c #9D9C9A",
"p. c #A19289",
"a. c #BB9984",
"s. c #B89682",
"d. c #B7A797",
"f. c #8A9EA2",
"g. c #8FA4A9",
"h. c #8DA2A7",
"j. c #97A9AD",
"k. c #95ACB2",
"l. c #98AFB5",
"z. c #9DB4BB",
"x. c #A9A9A7",
"c. c #B8B4A3",
"v. c #A0B7BE",
"b. c #B4B5B4",
"n. c #B9BCBD",
"m. c #C0A18C",
"M. c #C6AA96",
"N. c #C3BDAB",
"B. c #D7C1AD",
"V. c #C6C2B0",
"C. c #DAC5B1",
"Z. c #A3BBC3",
"A. c #B7CBD3",
"S. c #C5C7C8",
"D. c #DBD5C3",
"F. c #C3D3DA",
"G. c #C8D7DE",
"H. c #D6D9DB",
"J. c #D0D4D6",
"K. c #E7DDCA",
"L. c #EBE1CD",
"P. c #EBE7D4",
"I. c #F5EEDB",
"U. c #F0E4D1",
"Y. c #F8F1DE",
"T. c #CFDDE3",
"R. c #DBDEE1",
"E. c #D4E1E7",
"W. c #D5E2E8",
"Q. c #DBE5EB",
"!. c #E6E9EC",
"~. c #FBF5E2",
"^. c #FCF9E6",
"/. c #FFFDE9",
"(. c #E5EDF1",
"). c #EAEDF1",
"_. c #ECF2F6",
/* pixels */
"                                                                                                                                      ",
"                                                                                                                                      ",
"                                                                                                                                      ",
"                                                                                                                                      ",
"                                                                                                                                      ",
"                                                                                                                                      ",
"                                                                                                                                      ",
"                                                                                                                                      ",
"                                                                                                                                      ",
"                                                                                                                                      ",
"                                                                                                                                      ",
"                                                                                                                                      ",
"                                                                                                                                      ",
"                                                                                                                                      ",
"                                                                                                                                      ",
"                                                                                                                                      ",
"                                                                                                                                      ",
"                      o     o o   O O                                                                                                 ",
"                      O : o : > O h + + : O                                                                                           ",
"                  o + + Y & = j d G h > h O                                                                                           ",
"                  X G : j 4.c.K.P.I.P.V.Y o 0 $                                                                                       ",
"                : h + ` D.^.^.^.I.I.P.^.c.- d &                                                                                       ",
"                u ` Y K./.^.Y.N.m.m.e.M.d.c + = O                                                                                     ",
"              O + & N././.^.C.a.s.w.) ] 6.M = v * X                                                                                   ",
"              $ G d K././.K.a.a.w.] Q Q W b w X o                                                                                     ",
"                O v L././.C.a.a.5.) ) I b c 9 & +                                                                                     ",
"                  v K.~.I.M.a.s.w.Q T b c c 9 0 =                                                                                     ",
"                  $ { } 4.4.] T b k l c c c - o O                                                                                     ",
"                    o $ $ + @ % % @ $ - * - $                                                                                         ",
"                    O 9 i # &.=.-.=.2 3 &.3 o                                                                                         ",
"                    o d U * %.;.;.-.1 3 *.5 o                                                                                         ",
"                      v o.Z & 4 $.2 * * $ & O                                                                                         ",
"                      g 3.H A y = & ; = & + O .                                                                                       ",
"                      ; 7.X.^ ~ Z & O O : O & o +                                                                                     ",
"                      + +.0.[ ~ U , O ; & + & & O                                                                                     ",
"                      . A p.y.3.( D Z +.( x i & O                                                                                     ",
"                      + + H q.p.8.X.o.p.y.H ; o                                                                                       ",
"                    = [ u O ; j Z i i g u : Z u O                                                                                     ",
"                    G 0.x ; / D i u i Z ~ ( ( X.i o                                                                                   ",
"                  o { 3.i ; X./ ^ ^ ~ ~ ~ / ~ ~ A * O                                                                                 ",
"                  $ 3.[ y ; ^ ~ K ( ~ ~ ~ ~ ~ D y ; &                                                                                 ",
"                  ; 3./ y = ~ ~ u ; ^ U ~ ~ ~ ~ ; * ; .                                                                               ",
"                  i 7.U 0 ; [ [ g i ~ U D ~ ~ ~ Z p y &                                                                               ",
"                  A 3.U 9 ; / Z N A Z ~ ~ ~ ~ S p i y &                                                                               ",
"                o H o.U y & D u 9.] y ~ D ~ D Z p p y &                                                                               ",
"                o ^ { S y * ^ g $ > S D D K S x p i y &                                                                               ",
"                O ( [ S y : 7.v & : Z S ~ D p p p y 9 +                                                                               ",
"                O ' ( Z 9 $ G x $ = y y ; ; @ & - * & X .                                                                             ",
"                O / ( S 9 @ + - $ ` Z.b.x.x.i.t.t.#.O.O.` K K C V h ; ; > &                                                           ",
"                o Y 3.U x y + + $  .G.Q.E.Q.W.W.T.W.)._.).!.!.R.H.H.S.S.S.b.i.G                                                       ",
"                o , 7.3./ y + + + | l.z.v.Z.Z.Z.Z.Z.A.F.G.F.F.F.A.F.T.Q.Q.(._.J.O.+                                                   ",
"                o o i ^ / ; $ & + V  .@.@.#.r.r.u.f.f.h.g.h.g.k.k.l.l.z.z.Z.Z.j.#.&                                                   ",
"                o O w - + O $ O * o $ $ o o + & & > , , f f V F F L _ |  .@._ ,                                                       ",
"                O q - k p % $ O O O - l c q * % O o                                                                                   ",
"                O >.! 6 $ - @ s B q M - - w * % O o                                                                                   ",
"                + >.1.m 8 6 @ s :.a ! n r 6 % @ O o                                                                                   ",
"                O W 6.B t 7 7 # X % E n n e 6 # O o                                                                                   ",
"                  l 1.M t 7 # 6 @ O W R n t 7 # @ @ o                                                                                 ",
"                  = ! m 7 7 7 # @ @ P 1.n e 8 7 # @ o                                                                                 ",
"                    w n t 7 # # # o * W M t < 1 @ O                                                                                   ",
"                      & # * # @ O o   O * % @ @ . @                                                                                   ",
"                        . . . .           o X                                                                                         ",
"                                                                                                                                      ",
"                                                                                                                                      ",
"                                                                                                                                      ",
"                                                                                                                                      ",
"                                                                                                                                      "
};
