/* XPM */
static char *_60bb0b2275a43d3e5b38f0f640b25dbWFT1nxQeUgEjhVGg[] = {
/* columns rows colors chars-per-pixel */
"80 80 197 2 ",
"   c None",
".  c #241F13",
"X  c #262116",
"o  c #282317",
"O  c #2B2519",
"+  c #2E291D",
"@  c #322417",
"#  c #33251A",
"$  c #3B251B",
"%  c #322A1E",
"&  c #3B2A1E",
"*  c #2F2B20",
"=  c #342C22",
"-  c #392F23",
";  c #363125",
":  c #393126",
">  c #363429",
",  c #3C342A",
"<  c #3E382C",
"1  c #3D3D34",
"2  c #422B1E",
"3  c #482517",
"4  c #572517",
"5  c #443B1E",
"6  c #782819",
"7  c #612617",
"8  c #492F21",
"9  c #462D20",
"0  c #433225",
"q  c #4D3224",
"w  c #42352B",
"e  c #41392C",
"r  c #4C3A2D",
"t  c #493729",
"y  c #56392A",
"u  c #5A3B2C",
"i  c #523627",
"p  c #463731",
"a  c #453B32",
"s  c #4B3C34",
"d  c #493F38",
"f  c #513E34",
"g  c #503F38",
"h  c #494336",
"j  c #414138",
"k  c #4E433B",
"l  c #4A4538",
"z  c #544134",
"x  c #52423B",
"c  c #5B453B",
"v  c #524C3E",
"b  c #5F483A",
"n  c #594436",
"m  c #5F5526",
"M  c #644132",
"N  c #634A3D",
"B  c #6B4838",
"V  c #724E3F",
"C  c #635930",
"Z  c #665B26",
"A  c #7B703D",
"S  c #726526",
"D  c #4B4A42",
"F  c #464841",
"G  c #554741",
"H  c #564C43",
"J  c #5A4B45",
"K  c #5C4E4A",
"L  c #555045",
"P  c #5B5245",
"I  c #5D524B",
"U  c #56534B",
"Y  c #5D5B53",
"T  c #555C57",
"R  c #654C40",
"E  c #6B5245",
"W  c #61524E",
"Q  c #63574A",
"!  c #745344",
"~  c #7B5545",
"^  c #715749",
"/  c #755B4D",
"(  c #795B4D",
")  c #635552",
"_  c #665A53",
"`  c #695B55",
"'  c #6D5E5A",
"]  c #795F50",
"[  c #5A625E",
"{  c #6C6457",
"}  c #6D635C",
"|  c #676359",
" . c #7B6051",
".. c #73635D",
"X. c #736C5E",
"o. c #5B6460",
"O. c #6F6D66",
"+. c #766561",
"@. c #786762",
"#. c #7A6A64",
"$. c #706F69",
"%. c #65706E",
"&. c #6F716D",
"*. c #787167",
"=. c #6B7776",
"-. c #717F7F",
";. c #757570",
":. c #892817",
">. c #9A2A18",
",. c #A62917",
"<. c #A82A17",
"1. c #B52C19",
"2. c #E42C17",
"3. c #FB2D17",
"4. c #F62E17",
"5. c #835C4C",
"6. c #826354",
"7. c #896151",
"8. c #8C6B5B",
"9. c #856959",
"0. c #936B5B",
"q. c #816F69",
"w. c #83746C",
"e. c #84786F",
"r. c #9C7161",
"t. c #9A7B6A",
"y. c #877670",
"u. c #897771",
"i. c #8B7B74",
"p. c #8F7F78",
"a. c #A07464",
"s. c #91843D",
"d. c #BEAD4D",
"f. c #84837E",
"g. c #94847D",
"h. c #988D7D",
"j. c #A1826F",
"k. c #A38472",
"l. c #B9AC6A",
"z. c #778688",
"x. c #7D8E90",
"c. c #7F9092",
"v. c #8F8F8B",
"b. c #868681",
"n. c #9D8D85",
"m. c #929792",
"M. c #A4958C",
"N. c #A79B8A",
"B. c #B39480",
"V. c #BB9984",
"C. c #BC9A85",
"Z. c #AB9B93",
"A. c #B7A897",
"S. c #8A9FA3",
"D. c #8EA2A7",
"F. c #91A6AB",
"G. c #94A7AC",
"H. c #96ADB3",
"J. c #98AFB6",
"K. c #9DB5BC",
"L. c #ADAEAD",
"P. c #A2B8BF",
"I. c #B6B7B7",
"U. c #C1A28D",
"Y. c #C7AA95",
"T. c #CFB6A2",
"R. c #D0B8A3",
"E. c #C4C0AF",
"W. c #CBC7B5",
"Q. c #A2BBC2",
"!. c #B0BDC1",
"~. c #ACC3CB",
"^. c #B3C8CF",
"/. c #B6CAD0",
"(. c #BACDD4",
"). c #CDCFD0",
"_. c #C2D3DA",
"`. c #D3D7D9",
"'. c #D1CFC6",
"]. c #E7D8C4",
"[. c #EDE2CE",
"{. c #F3EDDA",
"}. c #F0E6D2",
"|. c #F8F1DE",
" X c #E8E3D0",
".X c #CEDCE2",
"XX c #DEE2E5",
"oX c #DBE5EA",
"OX c #E6EAED",
"+X c #E8EBEE",
"@X c #FBF6E3",
"#X c #FEF9E6",
"$X c #FFFCE9",
"%X c #EAEFF3",
"&X c #ECF1F6",
"*X c #EFF4F9",
"=X c #F0F5F9",
/* pixels */
"                                                                                                                                                                ",
"                                                                                                                                                                ",
"                                                                                                                                                                ",
"                                                                                                                                                                ",
"                                                                                                                                                                ",
"                                                                                                                                                                ",
"                                                                                                                                                                ",
"                                                                                                                                                                ",
"                                                                                                                                                                ",
"                                                                                                                                                                ",
"                                                                                                                                                                ",
"                                                                                                                                                                ",
"                                                                                                                                                                ",
"                                                                                                                                                                ",
"                                                                                                                                                                ",
"                                                                                                                                                                ",
"                                                                                                                                                                ",
"                                                                                                                                                                ",
"                                                                                                                                                                ",
"                                                                                                                                                                ",
"                                  o       o                                                                                                                     ",
"                          o O X o * + X > ; o o X o                                                                                                             ",
"                      o   o l h o v < . h , X ; P +                                                                                                             ",
"                      o = + v P X ; h L { | v < j O o                                                                                                           ",
"                      X _ v O U n.W. X{.@X@X{.E.I o > < o                                                                                                       ",
"                  o , , % e N.{.$X$X$X$X#X@X{.$XA.: j v o                                                                                                       ",
"                  X X.*.- A.#X$X|.|.W.W.T.Y.Y.].A.n % o o                                                                                                       ",
"                  X = ; h.#X$X#X#X].U.V.V.a.q.t.B.E 0 < v O                                                                                                     ",
"                o , ; , ].$X#X$X[.U.C.C.t.6.^ / 9.R r = a O o                                                                                                   ",
"                X h L n  X$X$X@XT.l.U.t.9.6./ / E J f O X                                                                                                       ",
"                  o o Q  X$X$X|.Y.V.C.t.] ] ( R c c f % ; o                                                                                                     ",
"                    X P {.$X$X].U.C.C.V.q.~ E N c c f = L O                                                                                                     ",
"                      w N.N.A.C.k.t.8.] R R R c c c s O O O                                                                                                     ",
"                      O % % ; w p w , - = - w f r f w O                                                                                                         ",
"                        O = : = # 4 4 4 4 3 o # $ @ O                                                                                                           ",
"                        o w x w 3 2.4.4.3.1.@ ,.2.,.@                                                                                                           ",
"                        X w ` x $ 1.3.3.4.:.O :.,.:.@                                                                                                           ",
"                          < w._ < # 6 >.6 # = * + + + o                                                                                                         ",
"                          , u.' I s > * * : p , = = % o                                                                                                         ",
"                          + w.#.) ) I k - + O + : o + O o                                                                                                       ",
"                          o { g.+.) I W , * O * < o = + o o                                                                                                     ",
"                          . x M.u.+.) ) K * = d * = = = = o                                                                                                     ",
"                            % e.M.n.y...) K W p.+.G g p O o                                                                                                     ",
"                          o o > w.M.Z.n.@.@.y.Z.n.+.s O o                                                                                                       ",
"                        O P G o + a U ' I K W Q l ; : p O O                                                                                                     ",
"                        s g...= 1 x , * * * = , G J ` #.K =                                                                                                     ",
"                      X _ g.W = x w.+.W K W W ) ' +.' ) ..s .                                                                                                   ",
"                      O *.e.H % x @.) ` ` ) ) ) ) ) ) ) ) g , .                                                                                                 ",
"                      = u.@.G % a ) ) ) ) ' ) ) ) ) ) ) J , , = O                                                                                               ",
"                      > g.` x = d ) ) d = G ' K ) ) ) ) J = = p O                                                                                               ",
"                      l p.` x = k #.' K 1 G ' K ) ) ) ) W g s p = o                                                                                             ",
"                    X P i.` d = k #.) w , d ) ) W ) ) ) J g s p : O                                                                                             ",
"                    o ` w.) g - < ) < s.l.e J ) W ) ) K g g s p , o                                                                                             ",
"                    O ' #.W g - , I a m A , K K J ) ) G x g s p , o                                                                                             ",
"                    * #...W g - a } x O + k K K W ) K g x g s p : o                                                                                             ",
"                    = #.' J g = L g.G = = x x K ) W G g x g s p = o                                                                                             ",
"                    : #.' J s = a ' D = = , w a p w = O w w w , o o                                                                                             ",
"                    = #.' J s @ o , a = : ;.b.&.| O._ D D D a > > = O O + o .                                                                                   ",
"                    + X.+.W x w = O + % d !.*X&X%X%XOXXXXXXX`.).).).L.L.L.m.v.v.f.O.O.O.Y H >                                                                   ",
"                    o ` i.+.K g w O % # 1 F./.(.(.(.(.(.(.(.(.oX%X*X*X*X=X&X%X&X*X*X*X*XOXOXI.Y X                                                               ",
"                    o < i.u.#.W , + + + 1 S.H.K.K.P.K.Q.Q.Q.Q.~.^.(.(././.^.~.~.(._..X.XoXOX%X`.$.+                                                             ",
"                    o o a Q ' J + = = # > o.%.=.=.-.z.x.x.S.D.F.F.H.F.F.H.H.H.J.H.H.K.K.K.P.P.G.&.=                                                             ",
"                    o @ , % # O O % O - O O + O o O * ; = > 1 1 j F D D T T T o.%.=.=.-.z.z.[ > X                                                               ",
"                    O & : N z = O + + = O + z c w = O O O X .                 o o o X + * + o                                                                   ",
"                    & ( f % r r 5 @ O = + e = t n N r 0 & o o                                                                                                   ",
"                    : 0.0.u & % # O Z d.C N ! 0 % % @ O O o o                                                                                                   ",
"                    - 8.r.V u q 0 # 5 S t N ~ M M i 2 2 $ # O                                                                                                   ",
"                    O 5.r.5.M i 8 9 # X o c ~ M M y 5 2 @ o O                                                                                                   ",
"                    o E 0.! u q 2 2 2 # . s 7.M M u 8 2 $ # # X                                                                                                 ",
"                      t 0.B i 8 8 2 $ $ @ - 0.7.M u 8 8 2 $ # o                                                                                                 ",
"                      O N ~ u q 8 2 $ $ @ # ^ r.V 8 8 2 2 $ O o                                                                                                 ",
"                        O t y q 2 $ $ @ @ . # n B i 2 $ # # o                                                                                                   ",
"                          o O O # # @ o o     o O # O O O o                                                                                                     ",
"                              o o o o               o                                                                                                           ",
"                                                                                                                                                                ",
"                                                                                                                                                                ",
"                                                                                                                                                                ",
"                                                                                                                                                                ",
"                                                                                                                                                                ",
"                                                                                                                                                                "
};
