/* XPM */
static char *_c27e7ff5e494b4ba58718c86a78f7dfidYEKW0PA3hpstCv[] = {
/* columns rows colors chars-per-pixel */
"64 64 231 2 ",
"   c None",
".  c #0D0A07",
"X  c #1B1107",
"o  c #1C1A18",
"O  c #100D09",
"+  c #221519",
"@  c #372406",
"#  c #22201E",
"$  c #2C2A28",
"%  c #342B2B",
"&  c #3C3936",
"*  c #442A0A",
"=  c #482C09",
"-  c #4A3305",
";  c #493109",
":  c #52320A",
">  c #573A09",
",  c #4A3214",
"<  c #653D0D",
"1  c #693F0C",
"2  c #483C27",
"3  c #443B39",
"4  c #4C2C37",
"5  c #5B4014",
"6  c #664609",
"7  c #77480F",
"8  c #76520C",
"9  c #7C550B",
"0  c #7E590D",
"q  c #694615",
"w  c #7B4D13",
"e  c #744A10",
"r  c #7C5615",
"t  c #48423C",
"y  c #544733",
"u  c #684623",
"i  c #7E5825",
"p  c #745B37",
"a  c #6C4C2C",
"s  c #7D6531",
"d  c #7F374E",
"f  c #484644",
"g  c #524D47",
"h  c #53504D",
"j  c #5C5959",
"k  c #575551",
"l  c #605956",
"z  c #7A6545",
"x  c #696159",
"c  c #776956",
"v  c #6E6963",
"b  c #736961",
"n  c #78716C",
"m  c #7C7571",
"M  c #747171",
"N  c #875515",
"B  c #925B17",
"V  c #835B0C",
"C  c #9B6616",
"Z  c #956A12",
"A  c #AC6B1B",
"S  c #A66718",
"D  c #B26D18",
"F  c #A67613",
"G  c #B67A1A",
"H  c #A7750C",
"J  c #855A28",
"K  c #855F30",
"L  c #8D612C",
"P  c #996625",
"I  c #856236",
"U  c #966D3A",
"Y  c #AC7226",
"T  c #B37223",
"R  c #BB7B29",
"E  c #B87724",
"W  c #A37532",
"Q  c #B17E3D",
"!  c #C7791A",
"~  c #D07E1B",
"^  c #C27C27",
"/  c #833A47",
"(  c #8F7054",
")  c #945869",
"_  c #827E7C",
"`  c #89796F",
"'  c #AC7C7A",
"]  c #B04669",
"[  c #D77A7A",
"{  c #B98214",
"}  c #B8820D",
"|  c #BD8122",
" . c #BA813A",
".. c #C48A0E",
"X. c #C68B1A",
"o. c #D4811C",
"O. c #DC861C",
"+. c #D08E1F",
"@. c #D7951F",
"#. c #E2891C",
"$. c #EBA413",
"%. c #FAAE1D",
"&. c #F2A917",
"*. c #C5832D",
"=. c #C98429",
"-. c #D88928",
";. c #D99429",
":. c #D38C36",
">. c #DC953C",
",. c #DA9235",
"<. c #E18E28",
"1. c #E5932C",
"2. c #EB962C",
"3. c #EA9D2D",
"4. c #E69727",
"5. c #E39433",
"6. c #EB9B34",
"7. c #E79B3A",
"8. c #ED9F3C",
"9. c #E59A33",
"0. c #F19A2F",
"q. c #EDA329",
"w. c #F4A828",
"e. c #EDA134",
"r. c #EEA03D",
"t. c #F1A433",
"y. c #F0A13C",
"u. c #F7B43A",
"i. c #B68844",
"p. c #AF8755",
"a. c #88817A",
"s. c #B19069",
"d. c #D89D55",
"f. c #C99449",
"g. c #E29C43",
"h. c #E09F4F",
"j. c #DCA258",
"k. c #EEA243",
"l. c #EEA64B",
"z. c #EAA54B",
"x. c #F3A84C",
"c. c #EFAA54",
"v. c #EFAD5C",
"b. c #E2A458",
"n. c #F0AD59",
"m. c #F0BA58",
"M. c #D3A264",
"N. c #CDAB71",
"B. c #E7AC66",
"V. c #EFB164",
"C. c #EFB46D",
"Z. c #F1B264",
"A. c #F0B56C",
"S. c #F5B866",
"D. c #EFB878",
"F. c #F1B974",
"G. c #F2BD7B",
"H. c #F0B772",
"J. c #F2C078",
"K. c #C55F80",
"L. c #E55F8C",
"P. c #D07693",
"I. c #F8699A",
"U. c #8B8583",
"Y. c #958D89",
"T. c #908783",
"R. c #9A9693",
"E. c #98938C",
"W. c #AE9881",
"Q. c #A59996",
"!. c #B59C83",
"~. c #B6A086",
"^. c #A9A29B",
"/. c #B7A796",
"(. c #B4ADAA",
"). c #B8B1AC",
"_. c #B3B0AC",
"`. c #CE9090",
"'. c #E58595",
"]. c #CAAC87",
"[. c #D4B697",
"{. c #D2B190",
"}. c #F1BF83",
"|. c #EABB86",
" X c #FA86AD",
".X c #C8ABA9",
"XX c #D8A7A6",
"oX c #C7B6AD",
"OX c #D3BDA4",
"+X c #C4B9B6",
"@X c #F4C387",
"#X c #EEC797",
"$X c #F3C791",
"%X c #F4CB99",
"&X c #F1CF8A",
"*X c #CAC2BD",
"=X c #D8C7B2",
"-X c #F3CDA2",
";X c #F3CFAB",
":X c #F4D3AC",
">X c #F4D1A6",
",X c #EED3B9",
"<X c #F3D4B3",
"1X c #F5D9B6",
"2X c #F5DABB",
"3X c #F6DABE",
"4X c #ECCCA3",
"5X c #F8E1BA",
"6X c #D6C9C5",
"7X c #DDD0CC",
"8X c #DBD5D2",
"9X c #CBC6C2",
"0X c #E4D6C5",
"qX c #F3DBC6",
"wX c #E7DAD6",
"eX c #E6C9CD",
"rX c #F7E2CA",
"tX c #ECE2DD",
"yX c #F7E6D4",
"uX c #F7E8DA",
"iX c #EDE8E5",
"pX c #F2E6E2",
"aX c #F5EAE5",
"sX c #F8EFE4",
"dX c #F6EDEA",
"fX c #F9EEEA",
"gX c #F5F1ED",
"hX c #F9F2ED",
"jX c #F8F0E6",
"kX c #F9F5F2",
"lX c #FAF5F3",
/* pixels */
"                                                                                                                                ",
"                                                                                                                                ",
"                                                                                                                                ",
"                                                    > V                             *                                           ",
"                                                    S -.8                         8 Z                                           ",
"                                                  w ,.t.{ >                     6 X.;.w                                         ",
"                                                * E 8.8.q.Z                   > { t.c.Q                                         ",
"                                                e <.8.l.k.@.6                 F 0.k.}.|.q                                       ",
"                                                A 6.l.%XH.e.F               V 4.r.V.qX,XL                                       ",
"                                              > -.8.V.yX<Xz.@.6           > X.t.k.-XdXqXQ                                       ",
"                                              N <.r.$XhXuXF.e.V           Z q.r.A.yXhXuXd.,                                     ",
"                                              D 2.l.1XkXgX-Xk.G         > X.r.l.-XgXhXpXB.q                                     ",
"                                            : ~ 8.v.yXkXfXqXv.;.-       8 e.r.V.yXhXkXaX|.N                                     ",
"                                            7 #.8.H.sXkXkXpXD.;.> * , @ 8 *.>.$XhXkXkXdX#XC                                     ",
"                                            B 4.r.$XhXkXlXpX#X9.r P C N 8 r W =XdXlXlXgX-XT                                     ",
"                                            D 2.k.:XkXkXlXaX;Xg.| g.8.7.;.G N c ).gXlXkX;X^                                     ",
"                                          * ! 1.x.3XkXkXkXaXqXz.7.g.r.8.r.e.;.G p ^.iXlX<X=.*                                   ",
"                                          : o.2.c.yXkXkXkXaXqXc.y.8.8.8.r.r.t.q.X.s R.iXqX:.;                                   ",
"                                          < O.2.v.uXkXkXgXpX-Xz.r.r.r.r.r.r.8.y.q.X.s ^.,X:.:                                   ",
"                                          < O.6.Z.sXhXkXaX<XV.8.8.r.r.r.r.r.r.g.y.q.G z ].:.:                                   ",
"                                          < O.6.A.jXlXaX<XA.k.8.8.k.y.8.r.r.k.8.r.t.w.H z R ;                                   ",
"                                          : ~ 2.A.uXuX;XV.8.8.8.r.r.k.8.r.r.8.8.r.r.t.$.0 r @                                   ",
"                                          @ D 1.v.<X}.c.8.g.8.8.8.8.y.8.r.r.k.r.r.r.e.w...-                                     ",
"                                          = S 1.k.c.k.y.x.Z.c.k.8.8.8.8.r.8.r.7.r.r.k.t.&.0                                     ",
"                                          B #.0.8.8.8.l.-XrX3XG.l.8.8.8.8.8.8.8.8.8.k.l.u.X.@                                   ",
"                                        @ ! 2.6.8.8.8.k.$XsXhXyXA.8.8.l.l.l.l.r.y.l.@X1X1X&Xq                                   ",
"                                        e #.2.8.8.8.8.y.c.}.:X:XZ.8.8.H.>X-X>XG.k.F.yXhXsX&XF                                   ",
"                                    % v s.2.7.8.8.y.y.6.2.y.n.n.l.8.k.-XsXjXsX1Xl.V.;X:X$Xm.X.@                                 ",
"                                  % U.*X,Xv.e.8.8.8.5.:.g.-.2.6.r.7.c.rXlXlXlXyXv.k.z.c.r.w.$.-                                 ",
"                                  & 6XlXgX&Xz.r.8.g.M.s.s.L ^ 6.r.r.@XjXkXkXlXuXV.r.9.;.,.q.$.r                                 ",
"                                  & *XkXkXyXA.r.7.p.9XR.f o < -.8.l.1XkXkXkXlXhXJ.r.g.i.s. .=.i.g                               ",
"                                  h 8XkXkXkX1Xc.,.a _ t O . X Y r.G.sXkXkXkXkXhX#X>.].+Xn & 5 N.^.#                             ",
"                                  $ Y.pXlXlXjX:Xh.J N S S N * T V.rXgXkXiX6X6X8X3X( a._ o . O n a.o                             ",
"                                    & E.tXhXlXsX;Xb.~ #.~ ~ ^ h.1XjXkXgX.X`.XX.XOX( u J N 6 @ v R.o                             ",
"                                      3 Y.wXfXhXaX3X}.n.y.x.F.1XsXkXkXkX.X[ '.`..X[.^ ~ ~ ~ Q /.m                               ",
"                                        3 T.6XfXfXfXyX3X:X:XyXgXkXkX8X(.Q.' ' `.7XuX}.k.0.x.@XE.3                               ",
"                                          & _ +XwXfXfXhXgXlXlXlXlXlX_.& 3 3 f E.gXlXuX-X$X4X^.g                                 ",
"                                              x Q.6XwXpXfXfXgXkXgXlX_.4 % + O _ gXlXlXlXtX_.h                                   ",
"                                                $ v R.oX6X0XwXtXiXdX7XP.P.' 4 Q.fXdXpX8X^.f                                     ",
"                                                    o 3 c a.Q.oX9XeX8X XI.I.P.+XwX0X).m %                                       ",
"                                                    ; N Y W J p x m ` ) L.I.[ _ ` j &                                           ",
"                                                  q | ;.-.D R M.+X+X^.( / ] d                                                   ",
"                                                6 { 9.,.Y *.b.2XdXgXiX~.u u                                                     ",
"                                      $         C 6.5.A R g.>XhXlXlXlX=XL C                                                     ",
"                                    k v       2 g.r.=.B ,.F.uXlXlXlXlX0XI ;.r                                                   ",
"                                    E._.      y ].v.P Y k.:XlXlXlXlXlXwXI ,.G                                                   ",
"                                  t 9X7Xy       Y.!.K ,.Z.yXlXlXlXlXlX0XK ,.;.>                                                 ",
"                                  g 7X4XW >     , y T 8.F.jXlXlXlXlXlX=XJ 5.9.6                                                 ",
"                                  3 ].c.7.*.E =.=.r o.6.F.fXlXlXlXlXlXOXL z.z.6                                                 ",
"                                    U 1.6.9.6.2.;.N G 2.c.rXlXlXlXlXkXs.z =Xs.t                                                 ",
"                                    , S -.2.0.4.~ e S 2.5.G.rXlXlXjX:Xs & b x                                                   ",
"                                      > N S D S N < =.6.=.^ Z.$X-X|.p.,                                                         ",
"                                          > 1 >   9 q.r.=.B D ^ *.Y N                                                           ",
"                                                  H %.r.5.w > B B C H ;                                                         ",
"                                                  } %.e.6.B * E :.q.$.6                                                         ",
"                                                  ..%.r.8.A < 5.e.w.&.6                                                         ",
"                                                  ..%.y.8.E w 5.r.w.&.8                                                         ",
"                                                  ..%.y.6.! N 6.k.w.&.8                                                         ",
"                                                  X.w.6.6.^ N 1.7.t.&.8                                                         ",
"                                                  p.G.D.D.s.p B.Z.S.m.a                                                         ",
"                                                  b /.{.~.b f W.{.[.W.t                                                         ",
"                                                    j M j     j U.T.j                                                           ",
"                                                                                                                                ",
"                                                                                                                                "
};
