/* XPM */
static char *b32f1629afbe462cc7df3d2cd089f54bppjc0r6kJNlLnBLA[] = {
/* columns rows colors chars-per-pixel */
"67 67 126 2 ",
"   c None",
".  c #351F1D",
"X  c #391E1F",
"o  c #272417",
"O  c #282317",
"+  c #2B2318",
"@  c #33221B",
"#  c #3A231E",
"$  c #3D1D21",
"%  c #3F2220",
"&  c #441B23",
"*  c #4B1927",
"=  c #4E1728",
"-  c #4E1928",
";  c #53152B",
":  c #5C132E",
">  c #541A29",
",  c #5B1D2B",
"<  c #5F1330",
"1  c #60152F",
"2  c #641B2E",
"3  c #631530",
"4  c #6B1732",
"5  c #661830",
"6  c #6C1933",
"7  c #751A35",
"8  c #7B1C36",
"9  c #7F1E38",
"0  c #442321",
"q  c #4B2324",
"w  c #532326",
"e  c #522A27",
"r  c #5C2329",
"t  c #572A29",
"y  c #5C2B2A",
"u  c #63212C",
"i  c #6B212F",
"p  c #63292C",
"a  c #6D292F",
"s  c #6E2131",
"d  c #6D2D31",
"f  c #742431",
"g  c #7C2234",
"h  c #732D33",
"j  c #7D2E36",
"k  c #7F2039",
"l  c #7E3137",
"z  c #811D37",
"x  c #841E38",
"c  c #891F39",
"v  c #832537",
"b  c #832A37",
"n  c #862439",
"m  c #8E223B",
"M  c #862C39",
"N  c #8B2D3B",
"B  c #97233D",
"V  c #95273D",
"C  c #93233C",
"Z  c #98233D",
"A  c #98243D",
"S  c #99253E",
"D  c #952A3D",
"F  c #952A3F",
"G  c #833139",
"H  c #87323A",
"J  c #8A323B",
"K  c #8C313B",
"L  c #8E323C",
"P  c #94333F",
"I  c #992840",
"U  c #9A2940",
"Y  c #9A2A40",
"T  c #9B2A40",
"R  c #9B2A41",
"E  c #9F2941",
"W  c #9F2B42",
"Q  c #9F2C41",
"!  c #9D3542",
"~  c #9B3241",
"^  c #A02941",
"/  c #A12B42",
"(  c #A12B43",
")  c #A22B42",
"_  c #A42A42",
"`  c #A12C42",
"'  c #A22C42",
"]  c #A32C42",
"[  c #A02F42",
"{  c #A42C43",
"}  c #A42D43",
"|  c #A52D43",
" . c #A62E44",
".. c #A72E44",
"X. c #A32D43",
"o. c #A92F45",
"O. c #A43144",
"+. c #A33745",
"@. c #A53445",
"#. c #AA3046",
"$. c #AD3047",
"%. c #AE3147",
"&. c #A83446",
"*. c #AC3247",
"=. c #B03348",
"-. c #B13349",
";. c #B5354A",
":. c #B4364A",
">. c #B6364B",
",. c #B7364B",
"<. c #B13349",
"1. c #B9364C",
"2. c #B9374C",
"3. c #B5384B",
"4. c #BA384C",
"5. c #B93A4C",
"6. c #BC394D",
"7. c #BD394D",
"8. c #BC394E",
"9. c #BC3A4E",
"0. c #BD3A4E",
"q. c #BF3B4F",
"w. c #C03B4F",
"e. c #C13B4F",
"r. c #C13B50",
"t. c #C23B50",
/* pixels */
"                                                                                                                                      ",
"                                                                                                                                      ",
"                                                                                                                                      ",
"                                                                                                                                      ",
"                                                                                                                                      ",
"                                                                                                                                      ",
"                                                                                                                                      ",
"                                                                                                                                      ",
"                                                                                                                                      ",
"                                                                                                                                      ",
"                                                                                                                                      ",
"                                                                                                                                      ",
"                                                                                                                                      ",
"                                                                                                                                      ",
"                              O O o O O O O + O O                                                                                     ",
"                            O O # y 0 + O O + + o O                                                                                   ",
"                            O + M 8.I 0 o @ G K 0 o o                                                                                 ",
"                          O O O 0 s 3 # O t q.4.n @ O O                                                                               ",
"                        O + + @ o @ & @ o r #.` 7 - + o                                                                               ",
"                        O O d N @ O O O o % 7 7 : ; + O                                                                               ",
"                      O O 0 I I 0 o o + o + & < : * + o                                                                               ",
"                      O O & 3 3 & O O   o o o $ % @ o o                                                                               ",
"                        o + & = @ + O   O O O o O O O                                                                                 ",
"                      O O O + + + o     O O @ r 0 O +                                                                                 ",
"                    O O + # @ + O o       O O q u + O                                                                                 ",
"                  O O 0 K O.b # O o         O O # + O O                                                                               ",
"                  O O j t.8.( > + O           O O O O O O O                                                                           ",
"                  + + b %.o.n : @ O               O O + O O                                                                           ",
"                  O + > 7 7 ; = + +                                                                                                   ",
"                  O + + $ + + + o +                                                                                                   ",
"                    O O o O # # @ O O                       O O O                                                                     ",
"                  O O + q G D D 6 # O O                   O O + O O O                                                                 ",
"                  o o q &.w.:.` 6 > + O O               O O + w 0 O O O                                                               ",
"                  o o p 2.8.%.W 4 : # O O O O O O O O O + O + # O O O O   O O O                                                       ",
"                  O O q C Y I 7 : : . o # q X X # $ + O O O O o O O O     O O O O O                                                   ",
"                    O O & 3 3 < : ; + O u C 4 : : : @ O + @ * # @ O O O O + q 0 O O O                                                 ",
"                    O O + & > ; * . o @ n B C m c z 2 w ; : : 1 2 r @ O O @ 0 @ O O O   O O                                           ",
"                      O O O + @ O O # J <.( Z Z B V B B C x 7 1 < > + o O O o o O O     O O O O                                       ",
"                        O O + @ 0 p ! 8.5.,.,...( } ` } ( B x 4 : @ o + + X q 0 + O O O + # + + O                                     ",
"                        O o 0 m ! :.w.q.8.5.e.,...} ..} _ c 1 : : & $ & ; : < : > @ O O # w + O O O O O O O O O O O O                 ",
"                        O O + f ( } @.H y e +.7.o.} ..} m 7 : : < : : : : : : : = + o + + + O O + + o O + @ X X @ + o o O             ",
"                          O O 0 f w # O o O M *.} } W k 3 : : < < 7 7 : : : : ; . o o + + O O O + @ 0 > : : : < : ; & @ O O           ",
"                            O O O O O O O w C V m 9 4 : : : 7 7 < z C 7 : : 1 ; . + X * * + O O @ r s s i i , , 5 3 : ; $ + O         ",
"                        O O O + # @ O O X 7 7 4 3 : : : 3 9 C 4 1 C C 4 : : 4 1 7 2 : : : X O O + + O O O O O O q m 9 < : X O O       ",
"                      O O O O # w @ O . ; 4 : : 1 : * @ 2 B 7 : 7 z 1 4 7 7 < 4 C m 1 : : = O O O O O O O + o O q O.( 9 : = + + O     ",
"                      O O @ @ O O O O & : 1 4 1 1 X O o q 4 : 3 4 3 7 C C 4 3 c Z C 4 : : = + o           O o O t P <.W 4 : X o O     ",
"                      O O b a + O O O O & ; : ; . o + + & : < 4 6 q w 8 4 : 7 C c 4 1 : : & + o             O O O # ! *.7 : & o O     ",
"                      O # M > O O O O O O . & . o O + + ; 3 7 x , O O = : : 7 4 1 : : : : . + + O             O O O l =.7 : $ o O     ",
"                    O O q r o o O     O O O O O @ @ o # : : : - + o o = : : : : : < < : & O O O O O +       O O O 0 Q V 3 ; + +       ",
"                    O O & @ o +         O O O # r + O & : < ; @ O o + = : : : & . $ ; & O O O O O O           O O + u 4 : $ O O       ",
"                    O O + + o           O O O + @ O O + @ $ @ O + O o = : : & O o o @ + O O                   O O @ = ; $ + O         ",
"                    O O + O +           O + @ @ O O O O O O O + q + O X & $ + o o o O O O O                   O + # X + o O           ",
"                  O O O + O             O O u ~ # o O     O O O # O O O O O O @ @ O O O O + O                 O O O O O O             ",
"                  O O O O               o o t ~ @ o       O O O O O O O   O o 0 r O O   O O O                   O O                   ",
"                  O O +                 O o q i O O       O o q f # O O   O o u k + +                                                 ",
"                  O O                     o # q O O       O O # 4 $ O O   O O w m 0 o +               O O                             ",
"                                          + @ 0 O O         O O & & o o   O o * m r o O O O O O O O O O O O O                         ",
"                                          o + + O O         O O @ $ o O   + o & 4 s + O + + O O O O O + 0 O O                         ",
"                                          o o O O             O + . + O   O o @ : 6 w + y h + O # r 0 & - O O                         ",
"                                          + + O O             O o + + O     + + - : 6 k #.3.K a f z 3 : $ O +                         ",
"                                            O O O               O O O O O   + O @ ; < 3 7 I X.m 7 : : = + O                           ",
"                                            + + +                 O O O O     O o . = : : 3 5 < < < = . o +                           ",
"                                                                  O O O O       o + + $ = = : ; = $ + + O                             ",
"                                                                    O +           + o o o @ . @ + + o +                               ",
"                                                                                      + + o o O O O                                   ",
"                                                                                                                                      ",
"                                                                                                                                      "
};
