/* XPM */
static char *_4aee572954d4779c632737397ef9f44B4wfbnWxHFA360M6[] = {
/* columns rows colors chars-per-pixel */
"64 25 236 2 ",
"   c None",
".  c black",
"X  c #010000",
"o  c #020000",
"O  c #030000",
"+  c #030001",
"@  c #040001",
"#  c #050001",
"$  c #060001",
"%  c #070001",
"&  c #070002",
"*  c #080002",
"=  c #090002",
"-  c #0A0002",
";  c #0A0003",
":  c #0B0003",
">  c #0E0003",
",  c #100004",
"<  c #180106",
"1  c #1A0107",
"2  c #1B0107",
"3  c #13060F",
"4  c #0C0710",
"5  c #000A12",
"6  c #000A13",
"7  c #020A13",
"8  c #030A13",
"9  c #060810",
"0  c #020B14",
"q  c #030B14",
"w  c #040B14",
"e  c #090B15",
"r  c #0A0B15",
"t  c #160B18",
"y  c #200109",
"u  c #210209",
"i  c #230209",
"p  c #24020A",
"a  c #25020A",
"s  c #26020A",
"d  c #28020B",
"f  c #29020B",
"g  c #2A020B",
"h  c #2C020C",
"j  c #31020D",
"k  c #34030E",
"l  c #35030E",
"z  c #3A0310",
"x  c #3B0310",
"c  c #3D0311",
"v  c #3E0311",
"b  c #3F0311",
"n  c #400312",
"m  c #410312",
"M  c #420312",
"N  c #430412",
"B  c #440413",
"V  c #4D0416",
"C  c #500416",
"Z  c #510416",
"A  c #520417",
"S  c #530517",
"D  c #540517",
"F  c #550517",
"G  c #560518",
"H  c #570518",
"J  c #590519",
"K  c #5B0519",
"L  c #5C0519",
"P  c #5E051A",
"I  c #63051B",
"U  c #66061C",
"Y  c #67061C",
"T  c #68061D",
"R  c #69061D",
"E  c #6B061D",
"W  c #6F061F",
"Q  c #71061F",
"!  c #4A0C22",
"~  c #4D0C23",
"^  c #500C23",
"/  c #510C23",
"(  c #500C24",
")  c #540C24",
"_  c #550C24",
"`  c #580C25",
"'  c #720620",
"]  c #730620",
"[  c #750720",
"{  c #760721",
"}  c #770721",
"|  c #780721",
" . c #790721",
".. c #790722",
"X. c #7A0722",
"o. c #7E0723",
"O. c #7F0723",
"+. c #700C2A",
"@. c #710C2A",
"#. c #770C2B",
"$. c #780C2B",
"%. c #7B0C2C",
"&. c #7C0C2C",
"*. c #830724",
"=. c #840725",
"-. c #850725",
";. c #850825",
":. c #860825",
">. c #870825",
",. c #870826",
"<. c #880826",
"1. c #8A0826",
"2. c #830D2E",
"3. c #850D2E",
"4. c #860D2E",
"5. c #880D2F",
"6. c #890D2F",
"7. c #8A0D2F",
"8. c #910828",
"9. c #950829",
"0. c #96092A",
"q. c #97092A",
"w. c #98092A",
"e. c #9B092B",
"r. c #9D092C",
"t. c #9E092C",
"y. c #8C0D30",
"u. c #8D0D30",
"i. c #8F0D30",
"p. c #A0092C",
"a. c #A0092D",
"s. c #A3092D",
"d. c #A5092E",
"f. c #A70A2E",
"g. c #AA0A2F",
"h. c #AB0A2F",
"j. c #A50D35",
"k. c #A60D34",
"l. c #AB0A30",
"z. c #AC0A30",
"x. c #AE0A30",
"c. c #AF0A31",
"v. c #AA0D35",
"b. c #B20A31",
"n. c #B40A32",
"m. c #B50A32",
"M. c #B60A32",
"N. c #B70B33",
"B. c #B40D37",
"V. c #B50D37",
"C. c #B80B33",
"Z. c #B90B33",
"A. c #BA0B34",
"S. c #BB0B34",
"D. c #BC0B34",
"F. c #BE0B35",
"G. c #BF0B35",
"H. c #B80D37",
"J. c #B40D38",
"K. c #B50D38",
"L. c #B70D38",
"P. c #B80D38",
"I. c #B90D38",
"U. c #BA0D39",
"Y. c #BC0E39",
"T. c #C00B36",
"R. c #C10B36",
"E. c #C20B36",
"W. c #C40B36",
"Q. c #C40B37",
"!. c #C50B37",
"~. c #C60B37",
"^. c #C70B37",
"/. c #C60D3A",
"(. c #C70E3B",
"). c #C80C38",
"_. c #CE0C39",
"`. c #CA0E3C",
"'. c #CB0E3C",
"]. c #CF0E3D",
"[. c #D10C3A",
"{. c #D20C3B",
"}. c #D30C3B",
"|. c #D40C3B",
" X c #D50C3B",
".X c #D60C3B",
"XX c #D10E3D",
"oX c #D20E3E",
"OX c #D30E3E",
"+X c #D60C3C",
"@X c #D70C3C",
"#X c #D40E3E",
"$X c #D50E3E",
"%X c #D80D3C",
"&X c #D90D3C",
"*X c #DA0D3D",
"=X c #DB0D3D",
"-X c #DE0D3E",
";X c #E10D3F",
":X c #E20D3F",
">X c #E30D3F",
",X c #E40D3F",
"<X c #E50D40",
"1X c #E60D40",
"2X c #E60E42",
"3X c #E70E42",
"4X c #E80D40",
"5X c #E80D41",
"6X c #E90D41",
"7X c #EA0E41",
"8X c #EB0E41",
"9X c #ED0E42",
"0X c #EC0E43",
"qX c #EE0E42",
"wX c #EF0E43",
"eX c #F10E43",
"rX c #F20E43",
"tX c #F20E44",
"yX c #F40E44",
"uX c #F50E44",
"iX c #F60E44",
"pX c #F60E45",
"aX c #F70E45",
"sX c #F80E45",
"dX c #F90E45",
"fX c #F90F45",
"gX c #F90F46",
"hX c #FA0F46",
"jX c #FB0F46",
"kX c #FC0F46",
"lX c #FD0F46",
"zX c #FD0F47",
"xX c #FE0F46",
"cX c #FE0F47",
"vX c #FF0F47",
"bX c #FF0F48",
/* pixels */
"        . . . . . . . . . . . . . . . . . . . . . . . . . . . . . . . . . . . . . . . . . . . . . . . . . . . . . . . .         ",
"        s s s s s s s s s s s s s s s s s s s s s s s s s s s s s s s s s s s s s s s s s s s s s s s s s s s s s s s s         ",
"    . f }.,X;X;X;X;X,X;X,X;X,X,X;X;X<X<X;X;X,X;X,X;X,X,X;X;X;X<X,X;X,X;X,X;X,X,X;X;X<X<X;X;X,X;X,X;X,X,X,X,X<X<X;X;X,X Xh .     ",
"    j H wXkXkXjXkXkXkXjXkXjXjXjXjXjXjXjXkXkXkXjXkXjXjXjXjXjXjXjXjXjXkXjXkXjXjXjXjXjXjXjXkXkXkXjXkXjXjXjXgXgXgXkXkXkXkXwXJ j     ",
". i  XwXjXjXjXjXbXkXbXkXkXjXjXjXjXjXjXjXbXkXbXjXjXjXjXkXkXbXjXbXkXkXgXgXjXkXkXcXjXbXjXjXjXaXjXjXjXjXgXkXkXkXkXkXgXgXgXjXwX+Xs . ",
". i ;XkXjXaXjX5XS.N.N.S.S.}.jXjXjX*XN.S.N.N.N.1XjXjXaXW.Z.N.S.S.E.eXgXkX5XY.I.A.N.S.S.N.}.jXjXjXjXjX+XI.I.I.L.I.5XkXgXgXkX,Xs . ",
". i ;XjXaXjXbXS.* . . # . R jXjXbX| # . . # # x.jXkXeXb . # . . s ;XkXkX`.t 9 . . # # . U bXkXjXjXkX@.8 w 0 0 e V.kXgXkXkX;Xs . ",
". i ;XjXjX1Xx.8.A Z Z Z Z 0.jX}.x.| Z Z V Z Z E.jXF.a.I Z Z Z Z J t.N.aX/.4 3 V Z Z Z Z ' g._.kX].v.$./ ) ) ) ) `.kXgXgXkX,Xs . ",
". i ;XjXkXE.: N eXaXaXaXaXaXjX=.. =.jXaXaXaXjXjXeXB * E.jXaXiXjX X2 f 5X^.* b wXaXaXaXjX9.. } kX%.0 y.hXiXjXaXgXjXgXgXkXkX,Xs . ",
". i ;XjXkXQ.# M eXjXjXjXjXjXbX*.. *.bXjXjXjXgXkXiXM * E.jXjXjXjX=X< f 5XW.> b eXjXjXjXkX0.. Q kX%.0 y.cXgXgXgXgXgXgXgXkXgX,Xs . ",
". i ;XjXkXE.# b aXbXbXkXbXjXjX*.. *.jXjXjXgXgXgXeXM * E.kXjXjXjX=X< f 5X^.* b aXbXkXbXbXw.. ' kX%.5 0.cXkXkXgXgXgXgXgXgXkX,Xs . ",
". i <XjXkX=X| } ,.,.,.,.,.N.bX*.. *.jXjXjXaXgXgXeXM # E.jXjXjXjX=X< f 5XW.* i *.1.,.,.1.X.' b.kX%.5 ~ 7.5.5.+XkXgXkXkXgXgX;Xs . ",
". i <XjXjXjXkXN.. . . . . U kX=.. *.kXjXgXgXjXjXeXM # E.kXjXjXjX X< f 5X).> . . . . . . I kXkXkX%.8 8 8 8 8 j.kXgXkXkXgXkX,Xs . ",
". i =XjXgXgXjX*X,.*.,.H . R kX=.. *.bXjXgXgXaXjXeXM * E.jXjXjXjX=X< f ,X^.> i X.*.*.=.=.O.} N.kX%.0 ! 2.2.5.XXgXgXgXgXgXkX;Xs . ",
". i <XjXjXaXjXjXkXkXbXa.. R kX=.. *.cXgXgXkXjXjXeXM * E.jXjXjXjX X< s wX^.* N iXkXbXkXbX0.. W bX$.8 7.kXkXkXkXgXkXgXgXkXkX;Xs . ",
". i <XjXjXaXjXjXjXjXkXt.. R kX=.. ,.cXkXgXgXjXjXeXM * E.jXjXjXjX=X< d ,X^.* v eXjXjXjXbX0.. Q kX%.8 i.kXgXgXgXkXgXgXgXgXkX,Xs . ",
". i ;XjXjXjXaXaXaXaXkXt.. R kX=.. =.kXjXaXjXaXjXeXN * E.kXaXjXjX*X2 d 5X).* b eXjXjXjXbX0.. Q kX&.8 y.kXaXjXaXjXjXjXkXgXkX<Xs . ",
". i ;XjXjX XL Z D D D Q d.).jX_.g.X.D D Z D F E.jXS.a.U D D D D L w.N.aX~.* x eXjXjXjXkX9.. Q kX].k.$._ ) ) / ` ).jXgXgXkX<Xs . ",
". i ;XjXkXW.> . . . . L kXkXjXjXkX| . . . . # l.kXbXeXx . . . . s ;XkXkX~., N eXjXaXjXkXw.# } jXkXcX@.8 0 0 0 e J.cXgXgXkX;Xs . ",
". i ;XkXjX5XZ.N.N.N.N._.jXjXjXjXkX XN.N.N.N.N.,XjXjXaXE.N.N.N.N.F.eXjXjX5XS.W.aXjXjXjXkX=XN.}.jXgXgXXXV.L.L.L.I.1XhXgXgXkX,Xs . ",
". i +XeXjXjXjXkXbXjXbXjXjXjXjXjXjXjXkXbXkXkXkXkXjXaXjXkXjXbXkXbXkXjXjXjXjXbXjXjXaXjXjXaXgXkXkXjXgXgXkXkXkXkXkXkXgXgXgXjXeX*Xs . ",
"    k J wXjXjXjXjXjXjXjXjXjXjXjXjXjXjXjXjXjXjXkXjXjXjXjXjXjXjXkXkXjXjXjXjXjXjXjXjXjXjXjXkXgXkXkXkXkXgXgXkXkXgXgXkXkXgXwXL l     ",
"    . f  X1X1X1X1X1X1X1X<X<X1X1X1X<X1X1X1X1X1X1X1X1X1X1X1X1X1X1X1X1X;X,X1X1X1X1X1X1X1X<X1X1X1X1X1X1X1X1X1X1X1X1X,X,X1X+Xh .     ",
"        s f f f d d d d d s f f d s d d d d d d d d d d d d d d f f f f d d d d d d d d f f f f f f f f f f f f f f f f         ",
"        . . . . . . . . . . . . . . . . . . . . . . . . . . . . . . . . . . . . . . . . . . . . . . . . . . . . . . . .         "
};
