/* XPM */
static char *_39ffc5b0fda4246a75ec77832992a5cvooP25AzOBTkOOe1[] = {
/* columns rows colors chars-per-pixel */
"64 64 165 2 ",
"   c None",
".  c #200F05",
"X  c #241106",
"o  c #281407",
"O  c #2C1608",
"+  c #2E1809",
"@  c #301709",
"#  c #341B0A",
"$  c #3B1E0B",
"%  c #3E210C",
"&  c #44230D",
"*  c #49260F",
"=  c #4C280F",
"-  c #452710",
";  c #4A2710",
":  c #462911",
">  c #4D2910",
",  c #532C12",
"<  c #582F13",
"1  c #553114",
"2  c #5E3617",
"3  c #5F3617",
"4  c #5E3717",
"5  c #5F3717",
"6  c #5E3616",
"7  c #5D3516",
"8  c #5C3215",
"9  c #5D3817",
"0  c #5E3817",
"q  c #5F3817",
"w  c #5F3817",
"e  c #5E3818",
"r  c #5F3918",
"t  c #603616",
"y  c #603716",
"u  c #603617",
"i  c #603717",
"p  c #613717",
"a  c #623717",
"s  c #623616",
"d  c #603817",
"f  c #613817",
"g  c #603917",
"h  c #623817",
"j  c #643817",
"k  c #653817",
"l  c #643917",
"z  c #643817",
"x  c #643718",
"c  c #603818",
"v  c #613818",
"b  c #603918",
"n  c #613918",
"m  c #623818",
"M  c #633818",
"N  c #623918",
"B  c #633918",
"V  c #623A18",
"C  c #633A18",
"Z  c #633B18",
"A  c #633A19",
"S  c #653818",
"D  c #643918",
"F  c #653918",
"G  c #673918",
"H  c #643A18",
"J  c #653A18",
"K  c #643B18",
"L  c #653B18",
"P  c #643B19",
"I  c #653B19",
"U  c #663A18",
"Y  c #673A18",
"T  c #663B18",
"R  c #663B19",
"E  c #673B19",
"W  c #643C19",
"Q  c #653C19",
"!  c #663C19",
"~  c #673C19",
"^  c #663D19",
"/  c #673D19",
"(  c #663C1A",
")  c #653918",
"_  c #683918",
"`  c #693A18",
"'  c #683B19",
"]  c #683C19",
"[  c #693C19",
"{  c #683D19",
"}  c #693D19",
"|  c #6A3C19",
" . c #6B3D19",
".. c #683D1A",
"X. c #693D1A",
"o. c #6A3D1A",
"O. c #6B3D1A",
"+. c #683E1A",
"@. c #693E1A",
"#. c #6A3E1A",
"$. c #6B3E1A",
"%. c #6A3F1A",
"&. c #6B3F1A",
"*. c #6A3F1B",
"=. c #6B3F1B",
"-. c #6C3C19",
";. c #6D3D19",
":. c #6C3D1A",
">. c #6C3E1A",
",. c #6D3E1A",
"<. c #6C3F1A",
"1. c #6D3F1A",
"2. c #6C3F1B",
"3. c #6E3F1A",
"4. c #6A3C19",
"5. c #6B401B",
"6. c #6C401A",
"7. c #6C401B",
"8. c #6D401B",
"9. c #6D411B",
"0. c #6E401B",
"q. c #6F401B",
"w. c #6E411B",
"e. c #6F411B",
"r. c #6F421B",
"t. c #6E411C",
"y. c #6F421C",
"u. c #6E411B",
"i. c #70401B",
"p. c #70411B",
"a. c #71411B",
"s. c #71411C",
"d. c #70421C",
"f. c #71421C",
"g. c #70431C",
"h. c #71431C",
"j. c #72421C",
"k. c #72431C",
"l. c #73431C",
"z. c #72441C",
"x. c #73441C",
"c. c #72441D",
"v. c #73441D",
"b. c #73451D",
"n. c #75441C",
"m. c #74441D",
"M. c #74451D",
"N. c #75451D",
"B. c #76441C",
"V. c #75461D",
"C. c #76461D",
"Z. c #76461E",
"A. c #77471E",
"S. c #72431C",
"D. c #78471E",
"F. c #78471E",
"G. c #78481E",
"H. c #79481E",
"J. c #7A481E",
"K. c #7A481F",
"L. c #7B491F",
"P. c #7C4A1F",
"I. c #7D4A1F",
"U. c #7D4B1F",
"Y. c #7E4B1F",
/* pixels */
"    O $ % # # # # # + + + + # # # % # % # # % + # + + + O O O + O O + % + + O o o o o X o X . X X X X X X X o o o O + + # # X   ",
"  % % , 1 7 r r r r 9 9 r 9 9 9 9 8 1 1 1 1 1 1 1 1 1 : , > : : : : : : : : : % & % % % % % % % % % % % - - - > : > , , 1 1 % X ",
"  > r 1 r 2 b b r r r r r r r 9 q d d d W r r r r r 9 r b b r r 5.r r W r 5.5.W L L k k r r r q 9 1 9 1 1 8 8 8 9 7 7 8 1 : : o ",
"  : r W P.L.P.L.G.G.Z.G.G.Z.Z.c.Z.K.6.^ 5.5.r r W 5.5.g.y.c.c.c.c.G.P.P.P.U.U.P.U.U.K.F.9.5.^ 5.y.c.c.c.g.g.l.g.g.8.8.Z.t.1 : O ",
"  > r 5.Z.9.^ r 7 7 2 2 r 5.b.b.Z.c...5.8.g.g.g.g.g.g.g.g.g.9.5.^ b s P 5.5.5.5.6...b d s b b k ( W M 2 2 b *.O.*.*.,.*.t., > + ",
"  : r r r 1 1 9 b ^ ^ P W r A ( ..^ ..5.......g.c.g.g.g.c.c.b.y.g.6.5...5.W b W P ........^ 7 7 8 1 1 < 1 8 7 2 2 x M ; A 7 : O ",
"  > r r y.b.y.y.g.c.Z.Z.Z.Z.c.*.W q d d ....8.c.g.g.g.5.5.r r 9 7 P ..1...P r 7 s b k P P d 7 s 9 2 M M 2 7 1 2 8 8 1 ; O.1 : + ",
"  : 9 r G.y.W 5.*.^ 5.8.8.*.*.b.G.K.Z.c.c.8...^ 5.5.5.r r 5.W W k P P P 1.1.g.6.p.6.p.p.1.1.1.[ ^ b P 7 8 8 1 , > 1 < 8 P 2 - O ",
"  : 8 q c.8.^ r b b b b P P 1.g.F.K.c.......^ ^ P ..6.6.8.1.8.,.6.p.6...[ k ^ _ ..1.1.1.6.p.1.[ O.*.A 1 8 < 1 8 8 2 8 s x 8 & O ",
"  : 1 r Z.8.^ ^ ..^ P ^ ..p.p.Z.g.g.6.6.6...^ k d P P ' P P b M d d P ..[ [ ..1.1.d s s d s 6 , > > > 1 1 8 u 8 2 x x _ ' 8 - o ",
"  : 8 b G.c.8.6.8.g.g.g.p.Z.Z.F.Z.g.c.6.1.6.1...' P P ' ' ..,.*.' P s 7 7 7 k ' P s d k k L L k 2 1 > > > , < _ O.-.-.-.' 8 & X ",
"  : 1 P Z.g.c.c.c.c.c.c.c.c.c.g.8.g.6.c.x.p.g.l.l.l.g.p.1.1.' P ' 1.p.p.1...' P _ ' ..^ [ L k d 2 1 1 , , < < u O.O.x u s 8 & o ",
"  : 1 W Z.8.5...5.6...^ ^ d 1 1 1 8 q b q 8 8 8 1 , > 1 M b M M s 7 8 8 8 q s d k s 7 7 s s s s M M 8 8 < < M s < s < < 8 8 % o ",
"  : 1 ^ Z.8.^ b q b d P ^ ^ b b b b 8 1 1 1 1 1 8 1 1 1 P O.P M 7 1 8 7 8 8 8 1 1 8 8 6 8 1 8 8 8 8 u u u _ x s < < s u 8 8 % o ",
"  : 1 W Z.8.g.g.6...P d 7 7 7 7 r 7 7 q q d b P d 7 8 8 8 8 1 < 8 8 8 1 1 1 8 8 8 7 s k k k s k x s x x _ _ _ x _ s s < < < $ o ",
"  : 1 ^ Z.g.8.6.6.p.c.c.8.1.P d r 8 8 8 d 7 s 7 s b P ^ O.O.M 1 1 1 8 7 b P P k d k _ _ _ _ _ _ _ x s 8 < < < < s u 8 s 8 s $ o ",
"  : , 5.b.g.b.g.c.y.6.6.........P P P P x s M P A A 3 8 1 1 1 u x _ _ -._ _ _ _ x x s s s s s < , , , < < < , > , , < 8 8 s $ o ",
"  : , 5.g.5.r r 8 8 b b 2 s 7 M s P 3.1.1.P 7 8 8 8 8 8 8 3 M O._ _ _ x _ s s < < ; , , , , , , < < s u 8 u x s < < < 8 s 8 $ o ",
"  : 1 5.^ > 1 r x k P P P ..1.8.1.' 1.-.' P P x x x x x x A S A _ _ x s < < < < < , , , , , ; ; ; , , < < < < , , , x s 8 s $ o ",
"  > , 5.^ 1 ^ ^ P P s s s M M s s P ' 1.3.-.1.' X.X.x x x x S x x x x x x _ x s s s x < < , < < , , > , , , > > , < < , 8 8 $ o ",
"o > > ..8...3.l.p.3.1.P [ [ _ 1.1.1.,...' P 8 8 < < 8 1 , , , > ; ; ; ; ; , , , , < x x s s s < < < ; ; > , < , , , < < 8 8 $ o ",
"X : > 1.8.g.3.g.p.6.1.' d k .._ P x b M s 8 8 8 8 8 8 < 8 < < < < < , < < < < < , , , , , , , , 1 < < < < < 8 8 < < < , < s $ o ",
"X : > 5.' M x s s 7 7 7 k k s 7 8 8 7 1 1 < 8 8 8 u x x x x _ _ _ _ x x x x x x x < < , , , < < < , , , , , < < < , > < 8 s # o ",
". : > 1.1.' M s s 7 s s 7 7 8 8 8 < , , , < < < < , > , < 8 < x s x x x x x x x x s < < , ; , < , , ; ; ; , 1 8 < , < < s 8 # o ",
". % : 8.P s 8 M M s s 8 t < < 8 < 8 1 8 8 s 8 8 8 8 8 < < ; ; ; > < < < s < s < < < < , ; ; ; , , , < < < s 8 s < ; > < < < $ o ",
". : > 8.x 7 8 P ' ' ' x s s x _ x M ' x s 8 8 s s 8 s 8 8 s 8 < , , , , , , < < , , , , , < < s 8 s s 8 < , = , , > , < s < $ X ",
"X % > 5.' ' ' P k _ x ' _ _ _ _ x 8 < , , , , < < , , , < < s < s 8 < , < < < < < < < , , , < < 8 8 < = , = = , > , ; ; < < $ . ",
"X % > *.M 8 8 s ' ' -._ _ s t , , , < 8 s 8 8 s s < s 8 < < , , > , , > ; > < < s s < s s s s < 8 < < < < < = , ; ; > , s < $ . ",
". % > O.2 8 8 _ k x x x s t t t x x x x s s s s s < s < < < < < < , < < < < < < < < , < 8 < s < < < , , ; * * ; , < < < s < @ X ",
". - ; O.M M s 8 8 8 < t 8 < < < < s s < < , < < < , < 8 s < s < < < < , , , > < < s < < s s < 8 8 < < < < < < 8 < < < , < < $ . ",
"X % : *.u < < < , < 8 8 < < < , , , , , > ; ; > > , , > ; > , < , < < < < < s s s < s < < < , = = < < < 8 < , , ; ; ; ; < < @ . ",
"X % > *.x s u s x x x x x s _ s s < < < < , , > ; ; * * * ; ; ; ; ; > ; ; , < < < < , * & & * = = < < < < , ; ; ; ; ; , s < @ . ",
"X & ; _ _ x s s < , , , ; , , < < s s x x 8 < < , , , , * * * * ; ; ; ; ; > > ; & & & & * * = < < < , = * * * * , < , , < , @ o ",
"X & ; _ < , , < < , , = * * * & * ; ; , 8 x 8 8 8 8 < < < , , , > > > ; > ; ; & & * * * * < < < , = * * * * = < < = * * < , @ X ",
"X & ; x < < < < < , , < , < , , , , , = = < < < 8 8 < s < s < 8 8 , , , , , > > , < < < , < , = * * * * * = < , & = = , < , @ X ",
"X $ ; x < < < s s < , , , , < < < < 8 8 < < < , , , = , , , , , , , > ; * & * ; = = * = = * * * * * * = , < , = = = = , < = @ X ",
"o $ ; x < , < , , , , , , , , ; , = < < < < 8 < , , = ; = = = * = = = = ; ; = > < , < < < < < < < < < < , = * * = , , , < = @ X ",
"X & * x , * ; , , ; , , , , , , , , = , ; * ; ; > > < < < < , , , = = ; ; * * ; * * = = * * * * = * * * = < < < < , , < < , @ X ",
"o & ; _ < , , , ; ; ; , , ; ; = = ; ; & * & ; = = , , , , , , , , , , = , , < < < , , , = = = * * * & * * & * * = < < < < * @ . ",
"X % * x s s s s s < s s s < < < < < < < < < < < < , , > = , , = , = = = * * * * * * * * , = = * * * & & & & $ & * = = , < * @ . ",
"o & & _ 8 < < < , , , , < , < < < < 8 < 8 < , , < < < < < < , , , , , < < , = , = * * * * & & * & * = = = = * * * * * = < * @ . ",
"o $ * x < , , , , , , ; , ; ; ; = > ; ; ; , = = = = = = * * * * * ; = , , , < , , , = , = = = = = , , , , , , < , , = = < & @ . ",
"X $ * x , , = , ; ; ; ; * * * ; ; ; & & * ; = ; & & & & & % & & * ; , , , , = * * & & & & & & & & & % % & & * = , = = = , & @ . ",
"o & & x , * * ; , , , , , ; , , < < < , = * * * & * & * * & * & % & ; , , = = , , * * * & * & & & & & & & $ $ $ % * = = , & #   ",
"o % * s , , , < s , , , , < , , < 8 < < < ; * * & & & & % & & & ; , < , , = = = = , * * & & & & & % % & $ $ $ % & & * & , & @   ",
"o % & x < , , , ; , , , , , ; ; , = = * * * & * & * = = = , , , , , = = = = * * & & * * * * & * & & % & & & & & $ & $ & , % @   ",
"o % & x < ; , , ; * * * ; * * * * * = , , , , < < < < < < < < , * * * * = , = = * & & & & & & $ % $ $ $ $ % $ $ $ & * & , $ @   ",
"X & & x < , , , , ; ; ; * * * & * * = , , , , , = < = < = = & % & % % & * , , , , < , , * * & & & % & $ $ $ % $ & & & & , $ O   ",
"o % & s < , , < < < < < , , , , , , , , , = = = = = = & % & & & & % & * = = , , , , , , = = , = = = * & & & * * * & * * , $ o   ",
"o $ & s < , < < < , , = = , = * * * * = = = = = & & & & & & & & & & * = , , , = = * & & * & & * = = = = , , , , , = * * , $ #   ",
"o % & 8 , , = * * * & & & & & & & & * & & & & & & & & & & & = = , , , = = & & & & & & & & & % $ % $ % % % & & * * * * * , $ @   ",
"o % & 8 = = = * & * * = , , , , , = = = = = & * & * = = = = = = * % & & % & & & & * & & & & & & % & & * & & & * & & & * , $ @   ",
"o $ & < , , = = = , , , , , * = = = = = = * * & & & = = = , = = * & $ & & & & * = * & & & % & * = * * * % % $ $ $ $ % & = # O   ",
"o % & 8 , = = * * * * & & $ & & & & & & * * * * * & = = , = = , = & & * = = & % $ $ # $ $ % % % % % $ $ $ $ $ $ $ $ $ * , @ O   ",
"o $ % 8 , * = = * * & & $ & & & & & & & & & & & & & = = * & & & & * * = * % & & % $ $ $ % & $ $ $ # # $ $ $ @ $ $ $ $ * , # O   ",
"o $ % < < , , , , < < , , , , = = * * = * = = = , = = = = * = & * * * * & % $ $ $ & & & % & % $ $ & & $ $ $ $ % & & * * = # O   ",
"O % & < < & & & & & & * * * = = = , = , = = * * & & & & & & * & * * = = = = * & $ @ $ $ $ $ $ $ $ $ $ % & = = , = = & = , # O   ",
"o $ $ < < * * * & & & & & & & * & * * = = * & & & & & & & & & & & $ % % % & % & & & % % $ % & & & * = = = , & & & % & & * # @   ",
"o $ & < < , * * & * & & & & & * = = = = = * & & & & & & & = * & & & % % $ $ $ $ $ # $ $ % & * * * * * = = = & & % & & = * # O   ",
"o $ $ < < < = * * * * = = , = = , = , = * & & & & & & & & * = = = * = * = = * * = = = = = = = = = = , > , > = * * , = = * $ O   ",
"o $ $ * = , , < , , , , , < , , , , , , = = = = = = = , , , , < , , , , , , = = & = , , , = , = = = = = = = = = = * * = * # O   ",
". $ $ $ $ @ $ $ $ $ $ @ @ @ @ @ @ @ @ @ # # # # # $ # $ $ # # $ $ $ & & $ % % $ $ $ & $ $ $ $ $ $ # $ # # # $ # # # # # O O O   ",
"  O @ $ $ $ $ $ $ @ $ $ $ @ @ @ @ @ O @ O O O O O @ O @ @ @ @ @ @ @ @ @ @ @ @ @ @ # @ # # @ # @ # @ @ @ O O @ @ @ @ @ @ @ O o   ",
"  . o O @ o o o o o X X X X X X X . X . . . . . . . . . . X .       . . . o . o X X X X X X X . X . X . X X X X X X X X X X     "
};
