/* XPM */
static char *ca52b70473b74f0afd3a302396974855DWhti06RJzwgClGb[] = {
/* columns rows colors chars-per-pixel */
"64 64 94 2 ",
"   c #190F0C",
".  c #16110E",
"X  c #1C120E",
"o  c #1C1311",
"O  c #1E1A1A",
"+  c #20160E",
"@  c #26190F",
"#  c #281A0F",
"$  c #221710",
"%  c #231A13",
"&  c #2B1D11",
"*  c #251D1A",
"=  c #2D2215",
"-  c #27201D",
";  c #2D241E",
":  c #332413",
">  c #352915",
",  c #392A16",
"<  c #362D19",
"1  c #392C1D",
"2  c #1F2022",
"3  c #222224",
"4  c #2C2522",
"5  c #262729",
"6  c #27282A",
"7  c #2B2B2D",
"8  c #302720",
"9  c #332A22",
"0  c #392F23",
"q  c #352E2A",
"w  c #3C3124",
"e  c #3D342A",
"r  c #2D2F31",
"t  c #2F3033",
"y  c #323335",
"u  c #393536",
"i  c #343538",
"p  c #36383B",
"a  c #3C3B3C",
"s  c #40362D",
"d  c #42392F",
"f  c #453C31",
"g  c #483F34",
"h  c #423E3E",
"j  c #44403F",
"k  c #3C3E42",
"l  c #3E4044",
"z  c #454446",
"x  c #494444",
"c  c #454649",
"v  c #47484A",
"b  c #4A4A4D",
"n  c #524F4F",
"m  c #51504F",
"M  c #4B4D51",
"N  c #4E5054",
"B  c #535355",
"V  c #595657",
"C  c #545559",
"Z  c #585758",
"A  c #57585C",
"S  c #5B5C5D",
"D  c #605E5E",
"F  c #5C5E61",
"G  c #605F60",
"H  c #5F6063",
"J  c #636365",
"K  c #686767",
"L  c #656669",
"P  c #686768",
"I  c #67686B",
"U  c #6A6B6C",
"Y  c #6D6E71",
"T  c #716F71",
"R  c #6F7072",
"E  c #727374",
"W  c #757679",
"Q  c #787779",
"!  c #77787A",
"~  c #7A7B7D",
"^  c #7D7E81",
"/  c #7F8082",
"(  c #828385",
")  c #858689",
"_  c #87888A",
"`  c #8A8B8D",
"'  c #8D8E91",
"]  c #8F9093",
"[  c #929395",
"{  c #959699",
"}  c #97989B",
"|  c #999B9D",
" . c #9C9EA0",
".. c #9FA1A4",
/* pixels */
"v v v x c c c c c c c c c c z z l v v b c c l c c c c z z v v v v v v v z c c v l v v c c c v v v v v v l M c l c v l c c z v v ",
"X . o y i i 6 3 2 7 6 5 y 6 r p y 5 2 2 t p i y i i i i y % % + X . O 3 t - 6 7 2 r 7 2 7 6 2 2 3 3 3 3 2 r 7 p t 2 6 k i 2 % % ",
"= + - H F F l k v C k c I H J A I M k l H I I L I I L I F 1 1 : # X 7 M C N S v l H N l H M l l k k l l l l l I F l H I L e > < ",
"# X - A I C c c F L c c F W L c H Y N l M N Y ^ ^ E W W J 1 < : & X 4 B H ! U c M R E R W H l l l z c S M A I W R I R W R e > > ",
": + * K Y A M M N W F N M I I M R ^ Y F M M Y ^ ^ ^ ^ ^ ^ 5 > : # X 7 A C Y W N N A W / ~ ! A N N A N E ^ Y H W ~ ^ ^ ~ ! d > > ",
"# + - U W F C A F ^ ^ I C F I F / / H H C C Y / ^ ^ / / Y 9 < : # X j U k A / U A A ! / / / ! F A R / / / H C E / / ^ / ~ e > : ",
": X % G Y J F J Y / / / H I Y I W / I H I H E / ^ / / / W 1 > : # X m R v H / ~ H H Y / / ~ P H U / / / / W H / ! Y ~ ) ~ s > > ",
": + * b F K W ( / _ _ _ / ^ I H Y W L Y W L ^ ) ^ / / ' W 0 > : # . N ! H Y / / W R H W _ R H U / _ _ _ ` / / ` ! H Q _ ( d > > ",
"& + * N F ^ _ _ ' _ _ ` ` ^ I L Y Y K / / I / ` ` ` ` ` I 1 < : # X x U ~ P ! ^ L Y L ~ _ E I ! ` _ ` ` _ ` ` ` / ~ ! Y ^ f : > ",
"& + * A L _ ' ' ' ' ` ` ' ^ I I Y E K ! ( W ` ` ` ` ` ( K 1 > : # . a G P D R R P ^ ^ W Y E / ` ` ' ` ` ' _ ' _ ' ) I L Y f > > ",
"& @ * A Y ) ] ] ' ' ' ' ' _ I I K U K E Y W ' ' ' ' ( U P 1 > : # X h D J U J K E / ~ P P U W ] ] _ ` ' ' ' ' ' ' ! K Y ~ f > : ",
"& + * G ^ ` ] ] ] ] ] ] ' ' ^ I W / ( _ R I E ' [ [ _ U U 1 > : # X a S / T K ^ ' E U U U U U ` ] R ^ ] ] ] ] [ ' R E ` ' f > > ",
"& + * E ^ ^ _ ] [ [ [ [ ' / ` / ` Q ( ( ~ E W [ [ [ ] W U w < : # X j ) ^ E ` ' ] ~ U Y U U E ~ R Y E ] [ [ [ ' ! ( [ { ' f > > ",
"& @ ; ^ ^ W _ { [ [ { [ ' Y / ' T U U U E ( ` Q ] [ [ [ ! 1 < : #   Z / S ^ ' ! ] ' J P Y Y ` ~ K P E { { [ { _ U T _ } ] f > > ",
"& $ ; T W ^ [  . .[ [ [  .^ R E Y Y W Y U E ^ Y ' [ { } T < > : # X x U K ! E ( ] E H Y Y L ( E A I ! { { { [ [ E U T _ [ d : > ",
"& $ - T ^ _ ' ] '  .[  .` ` Y Y Y Y ( E Y E E E ` _ [ / J < < : # X j ^ T J ^ [ ~ E E Y Y L ~ P J R R ] } _ / ' ! T U / { j : > ",
"& $ ; T ) Q ' ( ] _ ] ' ! R K R R U ( R R P K ( ~ ' ~ E D < < : = . z ( U U [ / E [ ] W E E ! E ' ! K ] ` J Y U U T Y ( ' j > > ",
"& $ * ^ ^ ( _ ( ' P R K E D R R E ! U ~ K G U ~ ` ^ ( / V < , : # X j P R E ~ E ] | _ W / P T _ { ! ) [ J U E J Y R U ~ ! e > > ",
"& + ; Q ^ ' ^ ' ~ E S D U P J R ~ ! J ~ U ! J ( ) ! [ ~ J 1 , : # . j H ` E Z / } E G _ ^ B U [ ! ^ } R D ! T K K U J J K d > > ",
": + * E [ ( _ Q _ ~ G S K J R ! U U G U ` ! J ( ! [ ) U S < , > # X d U ' J J ` ^ S J ~ Y D E ~ ! { ) Y Y U Y K J J J Z K w > > ",
": + * E / ~ E ( ( ~ J S S E ~ ! S G Z R / ~ E K ' [ E S b 1 < : # X j R J J U E G J P J ! ( ~ ! { ` ! [ / E _ K P G S G U e < > ",
"& + * D L T G W ! U U S U [ U T J S J J E [ K ~ } ~ T D m 1 > : # . j J S R K J R P S R / Y Y [ ] ! [ [ Q ` ) / R G S U J < > > ",
": + * Z J I P K R S S G / _ G P S U R J ~ ( / | ( E ! J m 1 > : & . j D E R Z U / J U _ U S ~ { ! ' } ~ / ] ~ [ U G J R S w > > ",
"# + - E J Y J E U S H R U T J S J U R ! / E | ( E _ ! E Z 1 > : & . f ! ` J K R J R [ / S P / ! E } ( ! / U ) _ J S E E Z < > , ",
"& + * ~ ( J S T E J E R J E S I R J ( U K R ^ P E ( ~ } E 1 > : # . z / ~ T E J S R ' E U E U P R ~ / / J J T U S H K R H 0 , > ",
"& @ * ~ Q B S S J R P S S A J J Z U R Z H S S P Y Y / [ Q 1 > : & X h H E U D Z K U T ~ E S F I I P / U Z J S ! G J B S J w > > ",
"& $ $ 9 < - ; ; 9 9 ; ; ; ; < ; - < < < > - ; < 4 < 0 q 9 1 > : # X % < q < = ; 9 ; 4 w 9 ; ; < ; 4 9 > ; ; < q < < - ; ; : , > ",
"& $ $ , , , , , > , , , , , > , < > < < > , > , > , > > : : < : # . = , > , < < > , , > , , , , , , , , , , , > < > < > > = < > ",
"& $ $ , , , , , , , , , , , , , > < < , , , < , , , , , > : > : # X = , , , , , > , , , , , , , , , , , > > , , , , , > > : < : ",
"& @ X : 1 : > > > > > > > > > > > > > > > > > > > > < > : > < : # X & > > > > > > > > > > > > > > > > > > > > > > > > < > : < > ",
"& @ + 1 < < < < < < < < < < < < < < < < < > < > < < < < > : < : # . = < < < < < , < < < < < < < < < < < < < < , < < < < < : > > ",
"& $   : : : > > > : > > : > > : > : : > > > > > > : > : = > , : # X # > : > : > : > > : > > : > > : > > : > > > > > : > : = < : ",
"& + X : : : : : & & : : : : : : & : : : : : : : & : : : : : < : & . # : : : : & : & : : : : & : : : : : : : : : : : : : & : , , ",
"& + X & & & & & & : # : & & & & & & & & & & & & : : # & # : > : # X # & # : & & : & & & & & : & & & & & & & & & & & & & & & , : ",
"& @ X # & # & @ & & # # # # # # & & # & # & & & # # & & # : > : & X + = # # & # & # & & & # # # # # & & # # # # & # # # & & , , ",
"& @   @ + @ $ $ + @ + + # @ @ @ @ @ + @ + @ $ $ @ @ $ $ + : < : & . + + @ + + @ $ $ $ $ @ + @ + @ + @ @ $ $ @ @ # @ @ $ o & 1 : ",
"& $   o o o o + + + X + X X X X o X X o X $   o   o +   X : , : & X   o + $ X o X X X X X X o X   o o $ o o o   + o X + o & 1 : ",
"& @ o                   X . X .                           : 1 : & X               X X   X X X .                           & , , ",
"& $   o $ o o o o o o o X X X X o o o X $ o o o o o o o X : < : $ X   $ o X   o X X X X . X o % o $ o o o $ o o   o o o o & , : ",
": @ * G T P J S Z n V n B Z S Z G D D D U B D P n n S n b > < : & X x P K E G D E J K D G S G J T K n K n T G V G V b V b 9 , , ",
"& + ; ( T E U Y I P I U U / K ~ ^ T ~ [ ~ G ' ) ! U ) U S < > : $   D _ ( ( ( [ ^ ) ..( R E P !  .R ~ ^ U ` U R ] P P U W g , : ",
"& + * G P T U G S K H P Y ~ K E G G ` ` G U ) ] _ / T J Z < < : &   m } ~ I [ ) J ~ [ T R U H ! ) J K K ! E R ~ ^ P ~ ~ ] g , : ",
"& + * V E T ^ Q E U K K U J ( E G ( | T J U / [ _ ] U D D 1 > : # X x ) ~ E ~ E T E T P R J U R E U S U R J ] E G ]  .| { g > : ",
"& @ * D L U Q I ~ / / ( J U E E E | ] P T T { ) [ / E J Z < , : #   x E R E T E Q ( ( _ J K E J ~ K ~ / H K _ P U ` ) ^ _ g , > ",
": + - J W ^ I S J T ~ ( ^ I J ` [ { ^ ^ T [ ' _ [ U D U B 1 < : # X x ~ W T R R W ( ) ( E ! E J U J ~ E P E R R R T T U Q g > > ",
"# + * S Q E S F U U K ~ ' J E | | ( ' ( W [ ) { [ U G ! J 1 > : #   V | [ / E U U _ U H ) ' P U G J U ! ^ / E / E ! ! T ^ g > > ",
": + % S J J V E ( E U Q ~ J ( } _ _ | ] [ { { | } Q / / Q 1 > : # X n ( ( ( T J E ( G P ! ! K R J U Y _ ~ R ^ ] E / Q R ( g > : ",
"# + - S J S Z W / T T U Q [ { ` ( { { } | { { { { [ ) _ U 1 > : # X j T U T T U ~ ( T ~ Y ! R R R ! ^ / / ! ] ' Y T U E ` f > > ",
": + * G W P I Y Y W ( _ [ { { ` [ { { { { { { { { { ^ ^ B 1 , : # X x E ) E Y Y ^ ( Y W Y / R I U ~ ) ! [ / _ ~ R R Y E W e < > ",
"# + * ( ( E Q U U _ { } [ { [ { { { { { { / ] { { ^ / H B 1 < : #   n ' { ~ I Y ' ) Y Y Y ^ W W ~ E R E [ R R R R ~ U ~ Y w > > ",
"& + ; _ W ^ W Y U ~ [ [ [ [ [ [ [ [ [ { ^ ^ ^ ^ ' ^ ' Y J 1 > : &   B [ [ ' W / ' ) / W I ` / ^ _ E K ~ [ E ~ R ~ ~ Y _ E e > > ",
": + 8 ^ U ` _ ( T ~ [ [ [ [ [ [ [ ] [ ] ^ I I I ^ ^ ^ ^ J 1 < : # X x ! ` [ [ _ Y W ' E Y ^ W Y U U E _ ( _ ] _ [ ~ ~ [ / w > : ",
"# + - F S ( _ W ( ` ] ] ] [ [ ' ] ] ] ] / / ^ I ^ / I ^ F 9 > : # X j U Y ` ` Y L Y / Y I I I I U ~ ` ` U ! / [ ] ` ] ] ' s > > ",
"& + * n J ( T T ( T _ ' ` ' ' ` ' ] ' ' { ] ^ H ^ ^ ^ ^ Y 0 1 : # X z U Y ` ^ K L Y E L I I I I ! ] ] _ U K U _ ] ' ] ' ` j > > ",
"& + % V ^ ^ L Y U K Q ' ` ` ` ` [ ] ] [ ' ' / ^ Y / / E W 0 > : # X j I U / ^ I E I L I Y ^ I Y _ ` ' ( K L P E ` ` ` ' ( j > : ",
": + * T W P K L K K ( ` ` _ ` ` / ] / / ] / ^ L L ^ / ^ G 1 , : # X j P L K Y W W L K K ^ / Y / ` ! ~ ~ P L L U ) ` _ ` ( d > > ",
"& $ O I I L L I I Y W / ) _ ) _ / / / / ' ^ ^ F H Y _ / B 1 > : # X j P L J P ! I L H I ^ / / / / R I U H H ^ ^ ) _ _ / / f < : ",
"& o 2 F L L H H Y L F Y / ) / E ^ ^ / ' ^ I ^ L H W ! E U 1 < : # X a L J H J J H I L H ^ ^ ^ / / W H I R H ^ / ( ^ / R U f > > ",
"& $ 2 C F A F A I ^ Y ^ / / / I L ^ I ^ ^ H A F Y ! H L J 1 < : # X a H F H F F A F F F I A H I H ^ Y E H H ^ / / J D S H e > > ",
"& $ 2 M C C I C J ^ ^ ^ ^ ^ ^ H N N M ^ ^ ^ N F W F N I B 1 > : # X u B N N C N C C C A Y I A A C N R H N H ^ / T V B B A e > : ",
": + % v M C ^ M F ^ ^ ^ ^ ^ ^ F N N A ^ ^ Y M C C b C I c 1 > : & X y M M N M M M M l M F ^ ^ ^ I C C H N H ^ W C M v N M q < : ",
"& $ $ l M H l k C ^ I ^ W W ^ H l l I ^ ^ I v l l c H C a > > : # X r c c l l l l l l M N ^ l l N l l I U I W A l c l l l < , : ",
"& o * M I A k k k A F F I I L H k l C C H I l k k N C k a 1 , : $ X 7 l k k l l k k C l l I l l k k l M N C H l l l l l l 0 , < ",
"# o * c l k r r r r k k l M N l r r k k l l i r r i r r 7 ; = = $ X 2 t t t t p 6 k k k k l k r r 6 k t r i l t p p t t t ; = = "
};
