/* XPM */
static char *c0e2118564894a148916801a10936f98WkWlMvcmvjXmSSY7[] = {
/* columns rows colors chars-per-pixel */
"64 64 141 2 ",
"   c None",
".  c #461F13",
"X  c #481F14",
"o  c #4B2115",
"O  c #512415",
"+  c #572816",
"@  c #5B2A17",
"#  c #56271B",
"$  c #57281A",
"%  c #5C2B19",
"&  c #632E1A",
"*  c #65301C",
"=  c #6C341C",
"-  c #6C381E",
";  c #70371D",
":  c #73391E",
">  c #6E3720",
",  c #703722",
"<  c #763C21",
"1  c #793E22",
"2  c #7D4323",
"3  c #7D4223",
"4  c #7C4123",
"5  c #7C4024",
"6  c #7E4124",
"7  c #7E4224",
"8  c #7E4324",
"9  c #7F4324",
"0  c #7C4026",
"q  c #7E4026",
"w  c #7F4127",
"e  c #7F4425",
"r  c #7D4223",
"t  c #804225",
"y  c #804325",
"u  c #814325",
"i  c #804424",
"p  c #804425",
"a  c #814425",
"s  c #824425",
"d  c #824526",
"f  c #834526",
"g  c #844526",
"h  c #844527",
"j  c #844627",
"k  c #854627",
"l  c #864627",
"z  c #834526",
"x  c #804228",
"c  c #854628",
"v  c #864628",
"b  c #864728",
"n  c #874728",
"m  c #854528",
"M  c #884728",
"N  c #89472B",
"B  c #884829",
"V  c #894829",
"C  c #8A4829",
"Z  c #8A492A",
"A  c #8B492A",
"S  c #8B482B",
"D  c #8C492A",
"F  c #8C4A2B",
"G  c #8D4A2B",
"H  c #8E4A2B",
"J  c #8E4B2B",
"K  c #8B482C",
"L  c #8C492C",
"P  c #8D492C",
"I  c #8F4B2C",
"U  c #8F4C2C",
"Y  c #8C4A2B",
"T  c #904B2C",
"R  c #904B2D",
"E  c #914B2D",
"W  c #904C2C",
"Q  c #914C2D",
"!  c #914D2D",
"~  c #924C2D",
"^  c #924D2D",
"/  c #934D2D",
"(  c #924C2E",
")  c #924D2E",
"_  c #934D2E",
"`  c #944D2E",
"'  c #944E2E",
"]  c #954E2F",
"[  c #954F2F",
"{  c #964F2F",
"}  c #974F2F",
"|  c #934D2E",
" . c #964F30",
".. c #974F30",
"X. c #974F30",
"o. c #985030",
"O. c #985031",
"+. c #995031",
"@. c #995131",
"#. c #9A5131",
"$. c #9B5131",
"%. c #9A5132",
"&. c #9B5232",
"*. c #9C5232",
"=. c #9D5232",
"-. c #9C5332",
";. c #9D5332",
":. c #9C5233",
">. c #9D5333",
",. c #9E5333",
"<. c #9E5433",
"1. c #9F5433",
"2. c #9F5434",
"3. c #9B5232",
"4. c #A05434",
"5. c #A05534",
"6. c #A15534",
"7. c #A15535",
"8. c #A25535",
"9. c #A25635",
"0. c #A35635",
"q. c #A35636",
"w. c #A35736",
"e. c #A45736",
"r. c #A55737",
"t. c #A25635",
"y. c #A55836",
"u. c #A55837",
"i. c #A65837",
"p. c #A65837",
"a. c #A75938",
"s. c #A75938",
"d. c #A85938",
"f. c #A95939",
"g. c #A95A38",
"h. c #A95A39",
"j. c #AA5A39",
"k. c #AB5B39",
"l. c #AB5B3A",
"z. c #AC5B3A",
"x. c #AA5B39",
/* pixels */
"  $ $ # # # # # # # $ $ $ $ $ $ $ $ $ $ # # $ # # # # # + + # # # # # # # # # # + # # # # # # # # # # # # # # # # # # # # # # # ",
"$ O $ , , > > % * * * * & & * * & * * & & & * * % * & & & * % * % * & & & & & & & & & & & & & & & & * & & & & & & & & & & & $ X ",
"# % $ 1  . .P w 1 5 1 1 1 < 1 1 1 1 1 : < : < : : < < < : 1 : = < - ; ; ; ; > ; ; ; = : - ; ; ; ; ; , - ; ; ; ; , ; ; ; ; * O X ",
"# > > $ 1  .7. .N e d d t v e t 8 8 8 8 e e e 8 e e 4 4 8 i 8 4 < < : ; ; ; : 1 ; : : = ; ; ; ; ; ; < : ; ; ; : : ; ; = & O O X ",
"# * 1 > $ 1 7.2.F C d 4 e d e d 8 8 8 8 s 4 4 d e 8 8 8 8 n 8 8 8 4 4 4 1 : : : = : : = : : : : = ; ; ; ; ; ; ; : ; ; & O @ + X ",
"# * 1 1 x $ 1 r.=.W F t 4 v d 4 8 8 8 n 8 4 d k 8 8 8 4 8 8 4 8 8 8 s d e 4 4 1 4 : : : : : - : ; ; : ; ; ; ; ; ; ; & O @ @ O X ",
"# > 1 1 N 1 % m k.$.~ ~ k d e d s 4 8 s 8 4 4 d 4 8 8 8 4 8 s s 8 4 8 s 4 8 t e 4 8 4 d 1 : : : ; ; : ; : : ; ; ; & O + @ + O X ",
"# * 1 1 w v 1 $ N g.W W W F k d s 8 8 d s d 4 e d 8 s k 8 8 n Z s 8 8 s 8 4 e 4 s 8 4 C k d 4 4 1 : : ; ; ; ; ; & O + @ + + O X ",
"# * < 1 4 e b < % P s. .W  .P P U C b b b v d d M 4 4 e 8 8 8 s 8 8 8 8 e e e N e 0 4 e d v e e i i i : ; ; ; & O @ @ @ @ O O . ",
"# * < 1 4 d d C < % K :.$.~ U P W W W W W P W W F F C d k d n g s 8 s 8 e w e e 0 e 8 8 e e 4 4 3 3 3 3 : ; @ O & @ @ @ @ O O o ",
"# > < 1 d k k k K < $ K k.9.'  .-.1.:.:.$. .[ F ' } =.9.0.0.;.W W W o.1.:.2.:.%.-.! ! ! W C v m s s i i i & O @ @ @ @ @ @ O O . ",
"# & 4 1 4 4 d d d W > & P :.W $.w.2.w.2.w.w.1.C T $.w.y.g.y.;./ W W [ [ %.:.:.:.1.2.2.<.:. .U R T T / / : + @ @ @ & @ @ + O O . ",
"# * < 1 k 4 e n m U R > $ & * > * * * & > * > * * & & > = & & * * * > % & & * * * * * > % > * * & * * & + @ @ @ @ @ @ @ + O O . ",
"# > 1 1 d e 8 8 v  .%.U % > > > , , , < > , > < < < , , : : : : < < 1 1 1 1 1 1 < , , < 1 , , < : : < @ O & @ @ @ + & @ O O O . ",
"# * 1 1 e 4 4 e m W h. .* w  . .:.2.9.:. .%.9.9.9.7.7.2.;./ / / :.s.r.s.s.u.l.l.2.W [ W  .U P K C N 1 & O & @ @ @ @ + @ O O o . ",
"# * 1 1 k d e b b [ l.O.& 0  . .%.$.2.2. .R P P U U U U J J C C ~ R P P K K L L b d d d m e e e 4 4 1 % O & @ @ & @ @ + O O o . ",
"# * 1 1 x w w e v W z.$.* w :.U N j n d s 8 8 8 i i 1 i i i i i s s s 3 i s i s 3 3 3 1 6 6 1 6 4 4 : & O & @ @ @ @ @ O O O o . ",
"# * 1 , 1 x 4 e v W z.$.& w h. .e 4 : 1 1 : 4 : : 1 : 1 1 : 2 : : : : : : : : : : 1 3 : : 6 : 1 : 4 : @ O & @ @ @ @ @ @ O O o . ",
"# * 1 1 4 e d e m W s. .& e l.O.e 4 : : : = = = = = ; ; ; : : : : ; = = : ; : ; : : : : ; ; ; ; ; ; = @ O & @ + @ @ @ @ O O o . ",
"# , 1 1 4 t v e v W k. .* w l.O.e 4 : - : : : : ; : ; ; ; : : : ; : : : = : : : : : : : 1 : : ; ; ; * & O & @ @ @ @ O O o o o . ",
"# * < 1 4 8 4 8 j ) s.U > x l.) i 2 : ; 1 = : : : : : ; ; : : ; : : : ; ; ; ; : : ; ; : ; ; ; = ; ; = @ O & @ @ & O @ O O o X o ",
"# * 1 1 4 8 4 8 j W s. .% e l.U i 2 : : : : : = 1 : ; ; ; ; ; : 3 : = : = ; : : ; ; 1 : ; ; ; = ; = = @ O & @ @ + & + O O o X . ",
"# * < 1 8 s 8 k j  .7.R * w :.U 2 3 : ; ; = = : : : ; ; ; ; ; : : : : ; ; : : : = : : : = ; ; ; ; ; & @ O & & + + @ @ O O o X . ",
"# > 1 1 8 k 8 8 m  .u. .* 0 ) B 3 3 ; ; ; ; : : : ; ; ; ; = : : : : : = ; 1 : ; = : : ; ; : ; = ; = = & O & & @ + @ O O O X X . ",
"# > < < 4 8 8 4 n W 6.' & w :.N : 3 : : = ; ; 1 ; ; ; ; ; ; : : : = ; ; : : : ; ; ; = ; 1 : ; = = = = @ O = @ @ @ @ O O O X X X ",
"# * < < 4 4 4 8 d W 1.' & m u.N i 3 : ; ; : : : ; ; ; ; ; : 3 : = : : : : : ; ; ; ; ; : : ; ; = = = = @ O & @ @ @ @ O O O X X . ",
"# * 1 1 4 s d 4 k W ' ' & m s.j s : : ; ; : : : ; ; ; ; : < : ; ; = : : ; ; ; ; ; = ; 1 ; ; ; = = = = @ O & @ @ @ + O O O X X . ",
"# * 1 < 4 d k 4 k ~ ' W * m w.m 2 3 ; = : : : = ; : = ; : : ; : : = ; ; ; ; : ; ; ; 1 ; ; ; ; ; = = = @ O & @ @ @ @ O O O X X . ",
"# * 1 1 1 m e 4 k W :.W & m 9.m 3 : : : : 1 : ; : : ; : 1 ; ; : ; = ; = ; ; ; ; ; 1 ; = ; ; ; ; = = & @ + & @ @ & + O o X X X X ",
"# * 1 1 w 1 4 e v W 9.' & N 2.m 8 3 : : : : = : : ; : 4 : ; ; ; ; ; = ; ; ; ; ; : ; ; ; ; = = ; = = = @ O & @ & + O O O O X X . ",
"# * 1 1 w t e e v ' k.' * w  .e 3 1 : : : ; : : : ; : : ; ; ; ; ; ; = ; ; ; ; ; ; ; ; ; ; = = ; = & = @ O & @ + @ O O O o X X . ",
"# * 1 1 e e t e k W k. .& 1 R w 2 3 : : : : ; ; ; : 4 ; ; ; ; ; ; ; ; ; ; ; ; ; ; = ; ; ; ; = = = = = @ O & @ & @ O O O o X X . ",
"# * < 1 8 s 8 8 m K f.%.& e P e : 2 : : ; ; ; ; : < : : ; ; : : ; ; ; ; ; ; ; ; ; ; ; ; = = ; ; = & = @ O = @ @ @ O O O X X X . ",
"# * 1 4 8 i i 1 m  .f.%.& e F 4 i i : : ; ; ; ; : : ; = ; = = ; = ; ; ; ; ; ; ; ; ; ; ; ; = ; = = = = @ O & @ @ @ O O O X X X . ",
"# * < 1 8 8 8 8 d W f.2.& w C e 2 2 ; : ; ; ; : 2 : ; ; ; : ; = ; ; ; ; ; ; ; = = ; ; : ; = ; = = = = @ O & @ O @ O O O X X X . ",
"O * 1 : 2 8 8 4 v W r.2.* 1 C 4 < 2 ; ; ; = : < : = = ; : : ; : ; ; ; ; : ; ; = ; ; ; : ; ; ; = & & = @ @ @ @ @ @ O O o O X X . ",
"# * < < 4 s s 8 m W 2.$.% 0 b e 2 2 : ; ; : : : : : = : : : = : ; ; : : : ; ; ; ; : : : = = = = & = = @ @ & @ @ O X O X X X X . ",
"# * < 1 8 8 8 8 j W  .W * 0 b e : i ; ; : : 3 ; = = : : ; = : : ; ; 3 : ; ; ; ; ; : : ; ; = = = & = = & O & @ @ @ O O O X . X . ",
"# & < 1 4 8 4 4 v ' b P * 5 b 8 < 3 : ; : : : ; ; : : : ; : : ; ; : : ; ; ; ; ; ; : ; ; ; ; = = & & = @ @ = @ @ O O O O X X X . ",
"# > 1 1 8 4 d e d W P W * e d 4 2 3 : ; : : : : ; : : ; : : : ; : 3 ; ; ; ; ; : : ; ; ; : ; = = & = & @ O @ @ @ O O O O X X X . ",
"# & 1 1 0 e N b m U F W * e m 4 2 3 : : : ; ; ; : : : ; : ; = : 3 ; ; ; ; ; : : : ; ; : : ; = = & = = @ O & @ @ O O o o X X X X ",
"# * 1 1 x e e e v W ' ' * 1 d 1 3 2 : : : : ; : : ; ; ; ; ; ; 2 ; ; ; ; ; : : : ; ; ; : ; = = = = = = @ O & @ @ O O O O X X X X ",
"# * 1 1 e e 5 e v W $.W * 1 N 5 2 i : ; : ; ; : ; ; ; ; ; ; < : ; = ; ; ; : ; ; ; ; ; ; = = = & = & = @ O & @ @ O O O o X X X X ",
"# & , 1 4 8 4 4 v W $.W * 1 x e : i 3 ; ; : : : ; ; ; = ; : : : = ; ; ; : : ; ; ; ; ; ; = = = = & = = @ @ & @ O O o O o X X X X ",
"# * < 1 4 e 8 8 k W 6.$.& s i i 3 3 : : : : : ; ; ; ; ; : : ; ; = ; = ; ; ; ; ; = ; ; = = ; & & = & = @ O = @ @ O o O O X X X X ",
"# * 1 1 8 n d 8 k W 6.$.& : i i 3 i 3 : : : ; = = ; ; ; : ; ; = = ; ; ; ; ; ; ; : ; ; = ; = = & = & = @ O & @ O O o O o X o X X ",
"# & 1 1 4 8 4 8 k T =.} * 4 i : i 3 : : : = = : ; = ; ; ; ; ; ; ; = ; ; ; ; = ; : ; ; ; ; = = = & = = @ O = @ O o o O O X X X X ",
"# * 1 < 8 8 n 8 k W o.' * 4 i 3 3 3 : : : = : ; ; = : : ; ; ; = = ; ; = = ; = ; : ; ; ; = = = & = = = @ O & @ O O O O o X X X X ",
"# * < < 4 s k 8 k W $.W * 1 m e 3 3 : ; ; : : : = : ; ; = = = = = = = = = = = = = = = & & = = & & = = @ O & @ O O O O X X X X X ",
"# * 1 < 8 4 4 8 k W ' ' * 1 d e i i ; = ; : : = = = = = = = = = = & = = & = & = = = & & = = = & = & = @ O = @ O O O O O X X X X ",
"# * 1 1 4 d d i k W W W * 1 1 < ; ; = = = & = & = & = & = = & = = & & = = & = & & = & = = & = = & = & & O @ @ O O O O X X X X X ",
"# * < 1 4 t d 4 k W W ' % % $ + @ + + @ @ @ @ @ @ @ @ @ + @ @ @ @ @ @ @ @ @ @ @ @ @ @ @ @ @ @ @ @ @ @ O O & @ O O X O X X X X X ",
"# * 1 < w e 4 4 n W ! d $ + % % @ @ @ @ @ @ @ @ @ @ @ @ @ @ @ + @ @ @ @ @ @ @ @ @ @ @ @ @ @ @ @ @ @ @ @ O @ @ O O o O O X X X X ",
"# * < 1 e e k e d W k % * 8 4 4 3 i i i 3 1 3 3 2 2 2 < 2 2 2 2 3 : 4 i 3 3 i 1 1 3 3 3 3 s 1 1 1 q 6 q @ X O O O O o X X X X X ",
"# * < < 1 e t e e < + * 1 1 - : : : : : : : : : : : : : : : : : < : : : : : : : : : : : : : : : : : : ; = @ X O O O O X X X X X ",
"# * < 1 e e 4 4 * + - 2 1 : : : : : : : ; ; : ; ; ; : ; ; : : ; : < : ; ; : : : : : ; : : ; : = = = = = & @ O X o O O X X X X . ",
"+ * 1 < 2 2 2 & % < 1 : : : = : ; ; ; ; ; ; ; ; ; ; ; = ; ; ; ; ; : ; : ; ; ; ; ; = = = = = = & = & & = = & @ @ X o O X X X X X ",
"+ & 1 2 2 2 @ % 4 4 1 : : : : = : ; ; ; ; = = = = = = = = = = = = = = ; = = = & = = = & = = = = & = = = = = & @ O X O X X X X . ",
"+ * < < < @ % 2 4 1 - = : ; : ; ; = = = = = = = = = & = & = = & & & = & = & = = = & = = = = = & = & = = & = = @ @ O X X X X X . ",
"# > < < % % < < : - : : = ; = = = & = & = & = & & = = = & = & = & = & = = = = & = & = = = & & = = & & = & @ @ @ @ @ O X X X X . ",
"# * , % @ 3 2 : ; : = = = = & = = & = = = = & = = = & = & = & = = & & = & = & = = & & & & & @ @ @ @ @ @ @ @ & @ @ @ @ o X X X X ",
"# * * $ < i : = = & & = = & & & & = & = & & & & & & & @ & & & & & & & @ @ & @ @ @ @ @ @ @ @ @ @ @ @ @ & @ @ @ @ @ @ @ @ o X X X ",
"$ $ $ 4 i : & & & & @ & @ @ & & @ @ @ @ @ @ @ @ @ @ @ @ @ @ @ @ @ @ @ @ @ @ @ @ @ @ @ @ @ & @ @ @ @ @ @ @ @ @ @ @ @ @ @ @ o X . ",
"$ o $ * @ @ O O O O O O + O O O O O O O O O O O O O O O O O O O O O O O O O O O O O O O O O O O O O O O O O O O O O O O o o . . "
};
